<?xml version="1.0" encoding="utf-8"?>
<!-- Generator: Adobe Illustrator 21.0.0, SVG Export Plug-In . SVG Version: 6.00 Build 0)  -->
<svg version="1.1" id="Layer_1" xmlns="http://www.w3.org/2000/svg" xmlns:xlink="http://www.w3.org/1999/xlink" x="0px" y="0px"
	 viewBox="0 0 595.3 595.3" style="enable-background:new 0 0 595.3 595.3;" xml:space="preserve">
<g>
	<path d="M261.8,480.8c0-52.8,0-105.3,0-157.4c-15.5-5-31-9.4-46.1-15c-44.8-16.4-76.2-47.5-82.1-104.3
		c-4.8-46.5,12.8-85.2,48.3-114.9c21.6-18,47.3-28.1,75.5-31.3c1.1-0.1,2.3-0.4,3.4-0.6c0.2,0,0.3-0.3,1.3-1.2
		c0-6.8,0.1-14.3,0-21.9c-0.1-11.8,5.1-20.6,15.4-25.8c10.4-5.3,20.3-3.7,30,2.8c8.5,5.7,12.1,13.3,12,23.2
		c-0.1,5.5,0.2,11.1-0.1,16.6c-0.3,4.6,1.3,6.1,5.9,7.1c32.3,7.1,61.9,19.8,84.3,45.2c7,7.9,12.8,16.8,18.8,25.6
		c8.5,12.4,14.1,26.1,17.1,40.9c3.3,15.9-4.7,29.1-20.9,33.6c-14.8,4.2-29.5-4-34.5-18.9c-3.3-9.8-5.6-20.3-10.8-29
		c-13.3-22.2-33.9-34.8-59.6-41.2c-0.2,2.8-0.4,5-0.4,7.2c0,50.3,0.1,100.6-0.1,150.9c0,5.3,1.4,7.3,6.7,8.8
		c24.5,6.8,49.4,13.2,71.1,27.2c8.2,5.3,16.1,11.7,22.6,19c28.6,32.5,36.3,70.5,24.6,111.5c-10.1,35.6-31.1,64.4-65.2,80.7
		c-15.8,7.6-33.6,10.9-50.5,16c-2.8,0.9-5.8,1.2-9.3,2c0,7.7,0.1,15.3,0,22.9c-0.2,16.6-12.9,29.1-29.3,29.2
		c-15.9,0-27.8-12.2-28.1-28.8c-0.1-6,0.3-12-0.2-18c-0.2-2-2.5-5.2-4.1-5.4c-26.5-3.5-50.1-14-71.6-29.2
		c-21.1-15-36.1-35.5-45.6-59.6c-3.1-7.9-5.5-16.1-7.5-24.4c-3.2-13.2,3.8-26.1,16.4-31.5c12.5-5.4,26.5-1.4,33.9,10.4
		c3,4.7,5.5,10,7,15.3c10,34.8,33.7,54.4,68.3,62C259.6,480.8,260.5,480.7,261.8,480.8z M261.7,262.8c0-49.5,0-98.9,0-148.7
		c-23.3,3.6-43.4,12.8-57.4,31.6c-12.1,16.3-21,33.9-15.4,55.9C197.5,235.2,225.8,259.6,261.7,262.8z M319.9,480.5
		c22.6-3.9,41.1-14.7,55.8-31.1c23.7-26.3,22.4-66.3-7.6-89.6c-14.4-11.2-30.5-18.1-48.2-23.1C319.9,385.1,319.9,432.5,319.9,480.5z
		"/>
</g>
</svg>
