<?xml version="1.0" encoding="utf-8"?>
<!-- Generator: Adobe Illustrator 21.0.0, SVG Export Plug-In . SVG Version: 6.00 Build 0)  -->
<svg version="1.1" id="Layer_1" xmlns="http://www.w3.org/2000/svg" xmlns:xlink="http://www.w3.org/1999/xlink" x="0px" y="0px"
	 viewBox="0 0 960 540" style="enable-background:new 0 0 960 540;" xml:space="preserve">
<style type="text/css">
	.st0{fill:none;}
	.st1{fill:#A5B0FE;}
	.st2{fill:#FFFFFF;}
</style>
<rect y="0" class="st0" width="960" height="540"/>
<path class="st1" d="M0,0h960v540H0V0z"/>
<path class="st2" d="M122.8,230c-26.6,0-26.6,0-26.6,0c-0.7,0-1.4,0.7-1.4,1.4s0.7,1.4,1.4,1.4c26.6,0,26.6,0,26.6,0
	c1.4,0,2.1-0.7,2.1-1.4S124.2,230,122.8,230z"/>
<path class="st2" d="M221.4,176.7c-67.8,0-67.8,0-67.8,0c0,3.5,0,3.5,0,3.5c65.7,0,65.7,0,65.7,0c0,102.4,0,102.4,0,102.4
	c-7.7,0-7.7,0-7.7,0c0-92.5,0-92.5,0-92.5c0-0.7-0.7-1.4-2.1-1.4c-55.9,0-55.9,0-55.9,0c0,3.5,0,3.5,0,3.5c54.5,0,54.5,0,54.5,0
	c0,101,0,101,0,101c-146.1,0-146.1,0-146.1,0c0-101,0-101,0-101c25.9,0,25.9,0,25.9,0c-0.7-1.4-1.4-2.1-1.4-3.5
	c-13.3,0-13.3,0-13.3,0c0-8.4,0-8.4,0-8.4c12.6,0,12.6,0,12.6,0c0-3.5,0-3.5,0-3.5c-14.7,0-14.7,0-14.7,0c-0.7,0-1.4,1.4-1.4,2.1
	c0,9.8,0,9.8,0,9.8c-9.8,0-9.8,0-9.8,0c-0.7,0-1.4,0.7-1.4,1.4c0,105.2,0,105.2,0,105.2c0,0.7,0.7,1.4,1.4,1.4
	c149.6,0,149.6,0,149.6,0c1.4,0,2.1-0.7,2.1-1.4c0-9.8,0-9.8,0-9.8c9.8,0,9.8,0,9.8,0c0.7,0,1.4-0.7,1.4-1.4
	c0-105.2,0-105.2,0-105.2C222.8,178.1,222.1,176.7,221.4,176.7z"/>
<path class="st2" d="M122.9,241.2c-45.5,0-45.5,0-45.5,0c-0.7,0-1.4,0.7-1.4,1.5s0.7,1.5,1.4,1.5c45.5,0,45.5,0,45.5,0
	c1.4,0,2.1-0.7,2.1-1.5S124.3,241.2,122.9,241.2z"/>
<path class="st2" d="M122.9,274.8c-45.5,0-45.5,0-45.5,0c-0.7,0-1.4,0.7-1.4,1.4c0,1.4,0.7,2.1,1.4,2.1c45.5,0,45.5,0,45.5,0
	c1.4,0,2.1-0.7,2.1-2.1C125,275.5,124.3,274.8,122.9,274.8z"/>
<path class="st2" d="M122.9,252.4c-45.5,0-45.5,0-45.5,0c-0.7,0-1.4,0.7-1.4,1.4s0.7,2.1,1.4,2.1c45.5,0,45.5,0,45.5,0
	c1.4,0,2.1-1.4,2.1-2.1S124.3,252.4,122.9,252.4z"/>
<path class="st2" d="M122.9,263.6c-45.5,0-45.5,0-45.5,0c-0.7,0-1.4,0.7-1.4,1.4c0,1.4,0.7,2.1,1.4,2.1c45.5,0,45.5,0,45.5,0
	c1.4,0,2.1-0.7,2.1-2.1C125,264.3,124.3,263.6,122.9,263.6z"/>
<path class="st2" d="M193.5,230c-11.9,0-11.9,0-11.9,0c-0.7,0-1.4,0.7-1.4,1.4c0,11.9,0,11.9,0,11.9c0,0.7,0.7,1.4,1.4,1.4
	c3.5,0,3.5,0,3.5,0c0,9.1,0,9.1,0,9.1c-16.8,0-16.8,0-16.8,0c0-9.1,0-9.1,0-9.1c3.5,0,3.5,0,3.5,0c0.7,0,1.4-0.7,1.4-1.4
	c0-11.9,0-11.9,0-11.9c0-0.7-0.7-1.4-1.4-1.4c-11.9,0-11.9,0-11.9,0c-0.7,0-1.4,0.7-1.4,1.4c0,11.9,0,11.9,0,11.9
	c0,0.7,0.7,1.4,1.4,1.4c5.6,0,5.6,0,5.6,0c0,9.1,0,9.1,0,9.1c-18.9,0-18.9,0-18.9,0c0-9.1,0-9.1,0-9.1c3.5,0,3.5,0,3.5,0
	c0.7,0,1.4-0.7,1.4-1.4c0-11.9,0-11.9,0-11.9c0-0.7-0.7-1.4-1.4-1.4c-11.9,0-11.9,0-11.9,0c-0.7,0-1.4,0.7-1.4,1.4
	c0,11.9,0,11.9,0,11.9c0,0.7,0.7,1.4,1.4,1.4c5.6,0,5.6,0,5.6,0c0,10.5,0,10.5,0,10.5c0,0.7,0.7,1.4,1.4,1.4c20.3,0,20.3,0,20.3,0
	c0,9.8,0,9.8,0,9.8c-17.5,0-17.5,0-17.5,0c-0.7,0-1.4,0.7-1.4,1.4c0,9.8,0,9.8,0,9.8c0,0.7,0.7,1.4,1.4,1.4c35.7,0,35.7,0,35.7,0
	c0.7,0,1.4-0.7,1.4-1.4c0-9.8,0-9.8,0-9.8c0-0.7-0.7-1.4-1.4-1.4c-15.4,0-15.4,0-15.4,0c0-9.8,0-9.8,0-9.8c18.2,0,18.2,0,18.2,0
	c0.7,0,1.4-0.7,1.4-1.4c0-10.5,0-10.5,0-10.5c5.6,0,5.6,0,5.6,0c0.7,0,1.4-0.7,1.4-1.4c0-11.9,0-11.9,0-11.9
	C194.9,230.7,194.2,230,193.5,230z M161.3,241.9c0-9.1,0-9.1,0-9.1c9.1,0,9.1,0,9.1,0c0,9.1,0,9.1,0,9.1c-2.1,0-2.1,0-2.1,0
	c-2.8,0-2.8,0-2.8,0H161.3z M139.6,241.9c0-9.1,0-9.1,0-9.1c9.1,0,9.1,0,9.1,0c0,9.1,0,9.1,0,9.1c-2.1,0-2.1,0-2.1,0
	c-2.8,0-2.8,0-2.8,0H139.6z M182.3,269.3c0,7,0,7,0,7c-32.9,0-32.9,0-32.9,0c0-7,0-7,0-7c16.1,0,16.1,0,16.1,0c2.8,0,2.8,0,2.8,0
	H182.3z M192.1,241.9c-4.2,0-4.2,0-4.2,0c-2.8,0-2.8,0-2.8,0c-2.1,0-2.1,0-2.1,0c0-9.1,0-9.1,0-9.1c9.1,0,9.1,0,9.1,0V241.9z"/>
<path d="M176.6,155.7c-0.7-1.4-11.9-24.5-20.3-38.6c-2.8-3.5-5.6-6.3-9.1-8.4c0-37.2,0-37.2,0-37.2c7,0,7,0,7,0
	c1.4,0,2.1-0.7,2.1-2.1c0-69.4,0-69.4,0-69.4c-3.5,0-3.5,0-3.5,0c0,68,0,68,0,68c-60.1,0-60.1,0-60.1,0c0-68,0-68,0-68
	c-2.8,0-2.8,0-2.8,0c0,69.4,0,69.4,0,69.4c0,1.4,0.7,2.1,1.4,2.1c7.7,0,7.7,0,7.7,0c0,37.2,0,37.2,0,37.2
	c-8.4,5.6-13.3,14.7-13.3,23.8c0,53.3,0,53.3,0,53.3c0,5.6,4.9,9.8,9.8,9.8c2.8,0,4.9-0.7,6.3-2.1c0,8.4,0,8.4,0,8.4
	c0,5.6,4.9,9.8,9.8,9.8c2.8,0,4.9-0.7,6.3-2.1c0,3.5,0,3.5,0,3.5c0,4.9,4.2,9.1,9.8,9.1c5.6,0,9.8-4.2,9.8-9.1c0-3.5,0-3.5,0-3.5
	c1.4,1.4,4.2,2.1,6.3,2.1c5.6,0,9.8-4.2,9.8-9.8c0-48.4,0-48.4,0-48.4c11.2,12.6,11.2,12.6,11.2,12.6v0.7c3.5,2.1,8.4,2.1,11.2-0.7
	C178.7,163.4,178.7,159.2,176.6,155.7z M101.8,72.2c41.9,0,41.9,0,41.9,0c0,11.9,0,11.9,0,11.9c-10.5,0-10.5,0-10.5,0
	c0-2.8,0-2.8,0-2.8c0-0.7-0.7-2.1-1.4-2.1c-17.5,0-17.5,0-17.5,0c-1.4,0-2.1,1.4-2.1,2.1c0,2.8,0,2.8,0,2.8c-10.5,0-10.5,0-10.5,0
	V72.2z M143.7,87.7c0,4.9,0,4.9,0,4.9c-10.5,0-10.5,0-10.5,0c0-4.9,0-4.9,0-4.9H143.7z M129.8,83.5c0,14,0,14,0,14
	c-13.3,0-13.3,0-13.3,0c0-14,0-14,0-14H129.8z M101.8,87.7c10.5,0,10.5,0,10.5,0c0,4.9,0,4.9,0,4.9c-10.5,0-10.5,0-10.5,0V87.7z
	 M173.1,164.1c-1.4,1.4-4.2,1.4-6.3,0c-14-16.1-14-16.1-14-16.1c0-0.7-0.7-1.4-1.4-0.7c-0.7,0-1.4,0.7-1.4,1.4c0,53.3,0,53.3,0,53.3
	c0,3.5-2.1,6.3-5.6,6.3c-3.5,0.7-7-2.1-7-6.3c0-28.8,0-28.8,0-28.8c0-1.4-0.7-2.1-2.1-2.1l0,0c-0.7,0-1.4,0.7-1.4,2.1
	c0,28.8,0,28.8,0,28.8c0,10.5,0,10.5,0,10.5c0,3.5-2.1,6.3-5.6,7c-3.5,0-7-2.8-7-6.3c0-11.2,0-11.2,0-11.2c0-28.8,0-28.8,0-28.8
	c0-1.4-0.7-2.1-1.4-2.1l0,0c-1.4,0-2.1,0.7-2.1,2.1c0,28.8,0,28.8,0,28.8c0,3.5-2.1,6.3-5.6,6.3c-3.5,0.7-7-2.1-7-6.3
	c0-16.1,0-16.1,0-16.1c0-21,0-21,0-21c0-0.7-0.7-1.4-1.4-1.4l0,0c-1.4,0-2.1,0.7-2.1,1.4c0,21,0,21,0,21c0,3.5-2.1,6.3-5.6,6.3
	c-3.5,0.7-7-2.1-7-6.3c0-53.3,0-53.3,0-53.3c0-8.4,4.9-16.8,11.9-21c0.7-0.7,0.7-0.7,0.7-1.4c0-13.3,0-13.3,0-13.3
	c10.5,0,10.5,0,10.5,0c0,2.1,0,2.1,0,2.1c0,1.4,0.7,2.1,2.1,2.1c17.5,0,17.5,0,17.5,0c0.7,0,1.4-0.7,1.4-2.1c0-2.1,0-2.1,0-2.1
	c10.5,0,10.5,0,10.5,0c0,12.6,0,12.6,0,12.6c0,0.7,0,1.4,0.7,1.4c3.5,2.1,7,4.9,9.1,8.4c9.1,14,20.3,37.9,20.3,38.6l0,0
	C175.2,159.9,175.2,162,173.1,164.1z"/>
<path class="st2" d="M723.8,111.7c3.4,5.6,3.4,5.6,3.4,5.6c0.7,1.4,1.4,1.4,2.7,0.7c0,0,0.7-0.7,0.7-1.4v-0.7
	c-3.4-6.3-3.4-6.3-3.4-6.3c-0.7-0.7-2.1-0.7-2.7-0.7C723.8,109.6,723.8,111,723.8,111.7z"/>
<path class="st2" d="M736.2,119.5L736.2,119.5c0-34.3,0-34.3,0-34.3c0-2.1-1.4-4.2-4.2-4.2c-20.2,0-20.2,0-20.2,0
	c-2.1,0-4.2,2.1-4.2,4.2c0,34.3,0,34.3,0,34.3c0,2.1,2.1,4.2,4.2,4.2c17.4,0,17.4,0,17.4,0c0.7-1.4,0.7-1.4,0.7-1.4
	C731.3,120.9,734.1,119.5,736.2,119.5z M711.8,120.2l-0.7-0.7c0-34.3,0-34.3,0-34.3l0.7-0.7c20.2,0,20.2,0,20.2,0
	c0.7,0,0.7,0.7,0.7,0.7c0,34.3,0,34.3,0,34.3s0,0.7-0.7,0.7H711.8z"/>
<path class="st2" d="M717.4,117.3c9.9-13.9,9.9-13.9,9.9-13.9v-0.7c0-0.7,0-0.7,0-1.4c-9.9-13.9-9.9-13.9-9.9-13.9
	c0-0.7-1.4-1.4-2.1-0.7c-0.7,0.7-1.4,1.4-0.7,2.1c9.2,13.9,9.2,13.9,9.2,13.9c-9.2,13.2-9.2,13.2-9.2,13.2c-0.7,0.7,0,1.4,0.7,2.1
	C715.9,118.7,717.4,118.7,717.4,117.3z"/>
<path class="st2" d="M727.2,87.3c-3.4,5.6-3.4,5.6-3.4,5.6c0,0.7,0,2.1,0.7,2.8c0.7,0,2.1,0,2.7-0.7c3.4-6.3,3.4-6.3,3.4-6.3V88
	c0-0.7-0.7-1.4-0.7-1.4C728.6,85.9,727.9,86.6,727.2,87.3z"/>
<path class="st2" d="M755.9,68.3c1.4,0,2.1,0,2.1,1.4c0.7,0.7,0,1.4-0.7,2.1h-0.7c11.9,0,11.9,0,11.9,0c0,51.9,0,51.9,0,51.9
	c0.7-0.7,2.1-0.7,3.5-0.7c0-51.2,0-51.2,0-51.2c8.4,0,8.4,0,8.4,0c4.2,0,7.7,3.5,7.7,8.4c0,44.8,0,44.8,0,44.8
	c0,4.9-3.5,8.4-7.7,8.4c-1.4,0-1.4,0-1.4,0c0,1.4-0.7,2.1-1.4,3.5l0,0c2.8,0,2.8,0,2.8,0c6.3,0,11.2-5.6,11.2-11.9
	c0-44.8,0-44.8,0-44.8c0-7-4.9-11.9-11.2-11.9C755.9,68.3,755.9,68.3,755.9,68.3L755.9,68.3L755.9,68.3z"/>
<path class="st2" d="M673.2,80.2c0,44.8,0,44.8,0,44.8c0,6.3,4.9,11.9,11.9,11.9c35.1,0,35.1,0,35.1,0c0-1.4,0-2.8,0.7-3.5
	c-24.6,0-24.6,0-24.6,0c0-61.7,0-61.7,0-61.7c14,0,14,0,14,0c-0.7-1.4-1.4-2.8-1.4-3.5c-23.8,0-23.8,0-23.8,0
	C678.1,68.3,673.2,73.2,673.2,80.2z M692.8,71.8c0,61.7,0,61.7,0,61.7c-7.7,0-7.7,0-7.7,0c-4.9,0-8.4-3.5-8.4-8.4
	c0-44.8,0-44.8,0-44.8c0-4.9,3.5-8.4,8.4-8.4H692.8z"/>
<path class="st2" d="M781.8,90.1c0-0.7-0.7-2.1-1.4-2.1c-1.4,0-2.1,1.4-2.1,2.1c0,25.1,0,25.1,0,25.1c0,0.7,0.7,1.4,2.1,1.4
	c0.7,0,1.4-0.7,1.4-1.4V90.1z"/>
<path class="st2" d="M680.8,102.6c0,2.1,1.4,4.3,4.3,4.3c2.1,0,4.3-2.1,4.3-4.3c0-2.8-2.1-4.3-4.3-4.3
	C682.3,98.4,680.8,99.8,680.8,102.6z M685.8,102.6l-0.7,0.7c-0.7,0-0.7-0.7-0.7-0.7c0-0.7,0-0.7,0.7-0.7
	C685.1,101.9,685.8,101.9,685.8,102.6z"/>
<path d="M716.7,147.2c3.5-9.8,3.5-9.8,3.5-9.8s0,0,0,0.7c0,2.1,0.7,4.2,2.8,5.6c1.4,1.4,4.2,2.8,6.3,2.1c2.8,0,4.9-1.4,6.3-2.8
	c3.5-4.9,3.5-4.9,3.5-4.9c0.7,2.1,1.4,4.2,3.5,5.6c1.4,1.4,4.2,2.8,6.3,2.1c2.1,0,4.2-1.4,6.3-2.8c2.8-3.5,2.8-3.5,2.8-3.5
	c0,1.4,1.4,2.8,2.1,4.2c2.1,1.4,4.2,2.1,6.3,2.1c2.1-0.7,4.2-1.4,5.6-2.8c5.6-6.3,5.6-6.3,5.6-6.3c1.4-2.1,2.1-3.5,2.1-5.6
	c0-2.8-1.4-4.9-2.8-6.3c-3.5-2.8-9.1-2.8-11.9,0.7c-2.8,3.5-2.8,3.5-2.8,3.5c-0.7-2.1-1.4-3.5-2.8-4.9c-2.1-1.4-4.2-2.1-6.3-2.1
	c-2.8,0-4.9,1.4-6.3,2.8c-1.4,2.1-1.4,2.1-1.4,2.1c0-2.1-1.4-4.2-2.8-5.6c-4.2-2.8-9.8-2.8-12.6,0.7c-7.7,9.1-7.7,9.1-7.7,9.1
	c-1.4,1.4-2.1,3.5-2.1,5.6c-3.5,0-3.5,0-3.5,0c-2.8,9.1-2.8,9.1-2.8,9.1c-1.4,3.5-4.9,5.6-8.4,4.2c-3.5-0.7-4.9-4.2-4.2-7.7
	c1.4-5.6,1.4-5.6,1.4-5.6c-3.5,0-3.5,0-3.5,0c-1.4,4.9-1.4,4.9-1.4,4.9c-1.4,4.9,1.4,10.4,7,11.8
	C709.7,155.6,715.3,152.1,716.7,147.2z M767.9,127.7c1.4-2.1,4.9-2.1,6.3,0c2.1,1.4,2.8,4.2,0.7,6.3c-5.6,6.3-5.6,6.3-5.6,6.3
	c-0.7,1.4-1.4,1.4-2.8,2.1c-1.4,0-2.8-0.7-3.5-1.4c-2.1-2.1-2.1-4.9-0.7-7L767.9,127.7z M753.1,125.6c1.4,0,2.8,0.7,4.2,1.4
	c0.7,0.7,1.4,2.1,1.4,3.5c0.7,1.4,0,2.8-0.7,4.2c-5.6,6.3-5.6,6.3-5.6,6.3c-1.4,0.7-2.1,1.4-3.5,1.4s-2.8,0-4.2-1.4
	c-1.4-0.7-2.1-2.1-2.1-3.5l0,0c0-1.4,0.7-2.8,1.4-3.5c5.6-6.3,5.6-6.3,5.6-6.3C750.3,126.3,751.7,125.6,753.1,125.6z M724.4,134
	c8.4-9.1,8.4-9.1,8.4-9.1c1.4-2.8,4.9-2.8,7-0.7c2.8,2.1,2.8,4.9,0.7,7.7c-7.7,9.1-7.7,9.1-7.7,9.1c-0.7,0.7-2.1,1.4-3.5,1.4
	c-1.4,0-2.8,0-4.2-1.4c-0.7-0.7-1.4-2.1-1.4-3.5C723,136.1,723.7,134.7,724.4,134z"/>
<path d="M789.6,132.6c28.8-21.6,28.8-21.6,28.8-21.6c10.5,0,10.5,0,10.5,0c0,11.9,0,11.9,0,11.9c0,0.7,0.7,1.4,1.4,1.4
	c129.7,0,129.7,0,129.7,0c0-3.5,0-3.5,0-3.5c-94,0-94,0-94,0c0-71.2,0-71.2,0-71.2c94,0,94,0,94,0c0-3.5,0-3.5,0-3.5
	c-129.7,0-129.7,0-129.7,0c-0.7,0-1.4,0.7-1.4,2.1c0,9.1,0,9.1,0,9.1c-25.2,0-25.2,0-25.2,0c-28.1-9.1-28.1-9.1-28.1-9.1
	c-2.1-0.7-4.9-0.7-7.7,0c-58.2,16-58.2,16-58.2,16c-0.7,0.7-1.4,1.4-1.4,2.1c0,0,0.7,5.6,4.9,9.1c3.5,2.1,8.4,3.5,14,2.8
	c14.7-2.1,29.5-6.3,30.2-6.3c0.7-0.7,1.4-1.4,0.7-2.1c0-1.4-0.7-1.4-2.1-1.4c0,0-14.7,4.2-29.5,6.3c-4.9,0.7-8.4,0-10.5-2.1
	c-2.1-2.1-3.5-4.2-3.5-5.6c56.1-15.3,56.1-15.3,56.1-15.3c2.1-0.7,4.2-0.7,6.3,0c28.1,9.1,28.1,9.1,28.1,9.1h0.7
	c25.2,0,25.2,0,25.2,0c0,46.7,0,46.7,0,46.7c-11.2,0-11.2,0-11.2,0h-0.7c-25.2,18.8-25.2,18.8-25.2,18.8
	C791.7,128.4,791,130.5,789.6,132.6z M832.4,49.6c30.2,0,30.2,0,30.2,0c0,71.2,0,71.2,0,71.2c-30.2,0-30.2,0-30.2,0V49.6z"/>
<path d="M851.3,108.2c0-2.1-1.4-4.3-4.2-4.3c-2.1,0-3.5,2.1-3.5,4.3s1.4,4.3,3.5,4.3C849.9,112.5,851.3,110.3,851.3,108.2z
	 M847.1,108.2c0-0.7,0-0.7,0-0.7c0.7,0,0.7,0,0.7,0.7c0,0,0,0.7-0.7,0.7V108.2z"/>
<path class="st2" d="M222.5,491.9c3.7,0,7.4-2.9,7.4-6.6c0-11.8,0-11.8,0-11.8c0-13.3,0-13.3,0-13.3c-3.7,0-3.7,0-3.7,0
	c0,11.1,0,11.1,0,11.1c-5.2,0-5.2,0-5.2,0c0-11.1,0-11.1,0-11.1c-3.7,0-3.7,0-3.7,0c0,11.1,0,11.1,0,11.1c-5.2,0-5.2,0-5.2,0
	c0-11.1,0-11.1,0-11.1c-3.7,0-3.7,0-3.7,0c0,13.3,0,13.3,0,13.3c0,11.8,0,11.8,0,11.8l0,0c0,1.5,0.7,3.7,2.2,5.2
	c1.5,0.7,3.7,1.5,5.2,1.5H222.5z M212.2,477.1c0-2.2,0-2.2,0-2.2c14.1,0,14.1,0,14.1,0c0,2.2,0,2.2,0,2.2H212.2z M213.6,487.4
	c-0.7-0.7-1.5-1.5-1.5-2.2l0,0c0-4.4,0-4.4,0-4.4c14.1,0,14.1,0,14.1,0c0,4.4,0,4.4,0,4.4c0,1.5-2.2,2.9-3.7,2.9c-6.7,0-6.7,0-6.7,0
	C215.1,488.2,214.4,488.2,213.6,487.4z"/>
<path class="st2" d="M229.2,362.9c-8.1-16.2-8.1-16.2-8.1-16.2c-0.7-0.7-1.5-0.7-2.2-0.7c0,0-0.7,0-1.5,0.7
	c-8.1,16.2-8.1,16.2-8.1,16.2c-0.7,0-0.7,0.7-0.7,0.7c0,30.2,0,30.2,0,30.2c3.7,0,3.7,0,3.7,0c0-28,0-28,0-28c1.5,0,1.5,0,1.5,0
	c3.7,3.7,3.7,3.7,3.7,3.7c0,24.3,0,24.3,0,24.3c3.7,0,3.7,0,3.7,0c0-24.3,0-24.3,0-24.3c3.7-3.7,3.7-3.7,3.7-3.7c1.5,0,1.5,0,1.5,0
	c0,28,0,28,0,28c3.7,0,3.7,0,3.7,0c0-30.2,0-30.2,0-30.2S229.9,362.9,229.2,362.9z M218.1,353.3c0.7-1.5,0.7-1.5,0.7-1.5
	c1.5,1.5,1.5,1.5,1.5,1.5H218.1z M218.8,365.9c-3-3.7-3-3.7-3-3.7c-0.7,0-0.7,0-1.5,0s-0.7,0-0.7,0c3-5.2,3-5.2,3-5.2
	c5.2,0,5.2,0,5.2,0c3,5.2,3,5.2,3,5.2c-0.7,0-0.7,0-0.7,0c-0.7,0-0.7,0-1.5,0L218.8,365.9z"/>
<path d="M162.7,396c-27.4,0-27.4,0-27.4,0c0-8.8,0-8.8,0-8.8c0-0.7-0.7-1.5-2.2-1.5C0,385.7,0,385.7,0,385.7c0,3.7,0,3.7,0,3.7
	c131.6,0,131.6,0,131.6,0c0,67.1,0,67.1,0,67.1C0,456.5,0,456.5,0,456.5c0,3.7,0,3.7,0,3.7c133.1,0,133.1,0,133.1,0
	c1.5,0,2.2-0.7,2.2-1.5c0-8.8,0-8.8,0-8.8c27.4,0,27.4,0,27.4,0c5.2,5.9,13.3,10.3,22.2,10.3c15.5,0,15.5,0,15.5,0
	c12.6,0,12.6,0,12.6,0c18.5,0,18.5,0,18.5,0c5.2,0,9.6-4.4,9.6-10.3c0-2.2-0.7-3.7-2.2-5.2c3,0,3,0,3,0c5.2,0,9.6-4.4,9.6-10.3
	c0-2.2-0.7-4.4-2.2-5.9c4.4-0.7,7.4-4.4,7.4-9.6c0-4.4-3-8.1-7.4-8.8c1.5-2.2,2.2-4.4,2.2-6.6c0-5.2-4.4-9.6-9.6-9.6
	c-46.6,0-46.6,0-46.6,0c0,3.7,0,3.7,0,3.7c46.6,0,46.6,0,46.6,0c3,0,5.9,2.9,5.9,5.9c0,3.7-3,5.9-5.9,5.9c-15.5,0-15.5,0-15.5,0
	c-10.4,0-10.4,0-10.4,0c0,3.7,0,3.7,0,3.7c10.4,0,10.4,0,10.4,0c15.5,0,15.5,0,15.5,0c5.2,0,5.2,0,5.2,0c3,0,5.9,2.9,5.9,5.9
	c0,3.7-3,5.9-5.9,5.9c-5.2,0-5.2,0-5.2,0c-15.5,0-15.5,0-15.5,0c-10.4,0-10.4,0-10.4,0c0,3.7,0,3.7,0,3.7c10.4,0,10.4,0,10.4,0
	c15.5,0,15.5,0,15.5,0c3,0,5.9,2.9,5.9,5.9c0,3.7-3,5.9-5.9,5.9c-10.4,0-10.4,0-10.4,0c-15.5,0-15.5,0-15.5,0c-5.2,0-5.2,0-5.2,0
	c0,4.4,0,4.4,0,4.4c5.2,0,5.2,0,5.2,0c15.5,0,15.5,0,15.5,0c3,0,5.9,2.2,5.9,5.2c0,3.7-3,5.9-5.9,5.9c-18.5,0-18.5,0-18.5,0
	c-12.6,0-12.6,0-12.6,0c-15.5,0-15.5,0-15.5,0c-8.1,0-15.5-3.7-20-10.3c-2.2,0-2.2,0-2.2,0c-2.2,0-2.2,0-2.2,0
	c-25.1,0-25.1,0-25.1,0c0-45,0-45,0-45c25.1,0,25.1,0,25.1,0c1.5,0,1.5,0,1.5,0c3,0,3,0,3,0c6.7-11.1,17.7-18.4,25.1-18.4
	c18.5,0,18.5,0,18.5,0c0-3.7,0-3.7,0-3.7c-18.5,0-18.5,0-18.5,0C182.7,378.3,170.1,385.7,162.7,396z"/>
<path class="st2" d="M839.5,327.8c19.5,0,19.5,0,19.5,0c0.7,0,1.3-0.7,1.3-1.4s-0.7-2-1.3-2c-19.5,0-19.5,0-19.5,0
	c-0.7,0-1.3,1.4-1.3,2S838.8,327.8,839.5,327.8z"/>
<path class="st2" d="M839.5,315c19.5,0,19.5,0,19.5,0c0.7,0,1.3-0.7,1.3-1.4c0-1.4-0.7-2-1.3-2c-19.5,0-19.5,0-19.5,0
	c-0.7,0-1.3,0.7-1.3,2C838.1,314.3,838.8,315,839.5,315z"/>
<path class="st2" d="M884.6,383.4c0-0.7,0-0.7,0-0.7v-0.7c0-117.2,0-117.2,0-117.2c0-0.7-0.7-1.4-1.4-1.4c-137.2,0-137.2,0-137.2,0
	c-0.7,0-2,0.7-2,1.4c0,117.9,0,117.9,0,117.9c0,1.4,1.4,2,2,2c90.6,0,90.6,0,90.6,0c0-3.4,0-3.4,0-3.4c-89.2,0-89.2,0-89.2,0
	c0-114.5,0-114.5,0-114.5c133.8,0,133.8,0,133.8,0c0,114.5,0,114.5,0,114.5c-25,0-25,0-25,0c0,3.4,0,3.4,0,3.4c26.4,0,26.4,0,26.4,0
	C883.3,384.8,884,384.1,884.6,383.4z"/>
<path class="st2" d="M839.5,302c19.5,0,19.5,0,19.5,0c0.7,0,1.3-0.7,1.3-2c0-0.7-0.7-1.4-1.3-1.4c-19.5,0-19.5,0-19.5,0
	c-0.7,0-1.3,0.7-1.3,1.4C838.1,301.3,838.8,302,839.5,302z"/>
<path class="st2" d="M729.2,323.7c0,3.4,2.7,6.1,6.1,6.1c3.4,0,6.1-2.7,6.1-6.1c0-3.4-2.7-6.1-6.1-6.1
	C731.9,317.6,729.2,320.3,729.2,323.7z M738.1,323.7c0,1.4-1.4,2.7-2.7,2.7c-2,0-2.7-1.4-2.7-2.7c0-1.4,0.7-2.7,2.7-2.7
	C736.7,321,738.1,322.4,738.1,323.7z"/>
<path class="st2" d="M895.5,340.6c0-33.8,0-33.8,0-33.8c0-0.7-0.7-2-1.4-2s-2,1.4-2,2c0,33.8,0,33.8,0,33.8c0,1.4,1.4,2,2,2
	S895.5,342,895.5,340.6z"/>
<path class="st2" d="M779.9,302L779.9,302L779.9,302c-8.1,5.4-14.2,14.3-14.2,24.5c0,15.6,12.9,27.9,28.4,27.9c1.4,0,2.7,0,4.1-0.7
	l0,0l0,0c13.5-2,23.7-13.6,23.7-27.2c0-15.6-12.9-27.9-27.7-27.9C788.7,298.6,784,299.9,779.9,302z M794.1,350.9
	c-13.5,0-25-10.9-25-24.5c0-8.8,4.7-16.3,11.5-20.4c11.5,21.1,11.5,21.1,11.5,21.1c4.1,23.8,4.1,23.8,4.1,23.8
	C795.5,350.9,794.8,350.9,794.1,350.9z M799.5,350.2c-4.1-22.4-4.1-22.4-4.1-22.4c23,0,23,0,23,0
	C817.1,338.7,809.7,347.5,799.5,350.2z M818.5,324.4c-23.7,0-23.7,0-23.7,0C783.3,304,783.3,304,783.3,304c3.4-1.4,6.8-2,10.8-2
	C807,302,817.1,312.2,818.5,324.4z"/>
<path class="st2" d="M736.1,394.8c100.6,0,100.6,0,100.6,0c0-3.4,0-3.4,0-3.4c-100.6,0-100.6,0-100.6,0c-6.1,0-11.5-5.4-11.5-11.5
	c0-112.5,0-112.5,0-112.5c0-6.1,5.4-10.8,11.5-10.8c155.4,0,155.4,0,155.4,0c6.1,0,11.5,4.7,11.5,10.8
	c-0.7,112.5-0.7,112.5-0.7,112.5c0,6.1-4.7,11.5-10.8,11.5c-23,0-23,0-23,0c1.4,0.7,2.7,1.4,3.4,3.4c19.6,0,19.6,0,19.6,0
	c8.1,0,14.2-6.8,14.2-14.9c0.7-112.5,0.7-112.5,0.7-112.5l0,0c0-8.1-6.8-14.2-14.9-14.2c-155.4,0-155.4,0-155.4,0
	c-8.1,0-14.9,6.1-14.9,14.2c0,112.5,0,112.5,0,112.5C721.2,388,728,394.8,736.1,394.8z"/>
<path d="M840,472.2c-6.8,0-6.8,0-6.8,0c-1.4,0-2,0.7-2,2c0,65.8,0,65.8,0,65.8c3.4,0,3.4,0,3.4,0c0-64.4,0-64.4,0-64.4
	c8.1,0,8.1,0,8.1,0c0.7,0,0.7,0,0.7,0c49.4,0,49.4,0,49.4,0h0.7c10.1,0,10.1,0,10.1,0c0,64.4,0,64.4,0,64.4c3.4,0,3.4,0,3.4,0
	c0-65.8,0-65.8,0-65.8c0-1.4-0.7-2-2-2c-10.1,0-10.1,0-10.1,0c8.1-28.5,8.1-28.5,8.1-28.5c1.4-4.7,2.7-10.2,2.7-15.6c0-17,0-17,0-17
	c0-5.4-4.7-9.5-10.1-9.5c-6.8,0-6.8,0-6.8,0c-0.7-3.4-3.4-5.4-6.8-5.4c-9.5,0-9.5,0-9.5,0c-0.7-3.4-3.4-5.4-6.8-5.4
	c-9.5,0-9.5,0-9.5,0c0-23.1,0-23.1,0-23.1c0-5.4-4.1-10.2-9.5-10.2c-6.1,0-10.1,4.7-10.1,10.2c0,59,0,59,0,59
	c-11.5-10.2-11.5-10.2-11.5-10.2c-3.4-2.7-8.1-2.7-11.5,0.7c-2.7,2.7-3.4,7.5-0.7,10.2C813.6,429.4,831.2,459.3,840,472.2z
	 M816.3,419.3c1.4-1.4,4.7-1.4,6.1,0c14.9,12.2,14.9,12.2,14.9,12.2c0.7,0.7,1.4,0.7,1.4,0.7c0.7-0.7,1.4-0.7,1.4-1.4
	c0-63.1,0-63.1,0-63.1c0-3.4,2.7-6.8,6.8-6.8c3.4,0,6.1,3.4,6.1,6.8c0,40.7,0,40.7,0,40.7c0,1.4,0.7,2,2,2c0.7,0,1.4-0.7,1.4-2
	c0-14.2,0-14.2,0-14.2c9.5,0,9.5,0,9.5,0c2,0,3.4,1.4,3.4,3.4c0,10.9,0,10.9,0,10.9c0,1.4,0.7,2,2,2c0.7,0,1.4-0.7,1.4-2
	c0-8.8,0-8.8,0-8.8c9.5,0,9.5,0,9.5,0c2,0,3.4,1.4,3.4,3.4c0,10.9,0,10.9,0,10.9c0,1.4,1.4,2,2,2s1.4-0.7,1.4-2c0-8.8,0-8.8,0-8.8
	c6.8,0,6.8,0,6.8,0c3.4,0,6.8,2.7,6.8,6.1c0,17,0,17,0,17c0,5.4-0.7,10.2-2,14.9c-8.8,29.2-8.8,29.2-8.8,29.2c-47.3,0-47.3,0-47.3,0
	c-8.1-11.5-28.4-46.1-28.4-46.1l0,0C814.3,424,814.3,421.3,816.3,419.3z"/>
</svg>
