<svg version="1.1" viewBox="0.0 0.0 960.0 540.0" fill="none" stroke="none" stroke-linecap="square" stroke-miterlimit="10" xmlns:xlink="http://www.w3.org/1999/xlink" xmlns="http://www.w3.org/2000/svg"><clipPath id="g3fad2a1250_3_0.0"><path d="m0 0l960.0 0l0 540.0l-960.0 0l0 -540.0z" clip-rule="nonzero"/></clipPath><g clip-path="url(#g3fad2a1250_3_0.0)"><path fill="#a5b0fe" d="m0 0l960.0 0l0 540.0l-960.0 0z" fill-rule="evenodd"/><path fill="#ffffff" d="m0 0l960.0 0l0 540.0l-960.0 0zm23.6304 23.6304l0 492.73923l912.73926 0l0 -492.73923z" fill-rule="evenodd"/><path fill="#ffffff" d="m122.83617 230.00558c-26.56591 0 -26.56591 0 -26.56591 0c-0.6991806 0 -1.3981171 0.6761017 -1.3981171 1.3521881c0 0.6760864 0.69893646 1.3521881 1.3981171 1.3521881c26.56591 0 26.56591 0 26.56591 0c1.3983612 0 2.0975418 -0.6761017 2.0975418 -1.3521881c0 -0.6760864 -0.6991806 -1.3521881 -2.0975418 -1.3521881z" fill-rule="evenodd"/><path fill="#ffffff" d="m221.43892 176.70387c-67.80138 0 -67.80138 0 -67.80138 0c0 3.5048828 0 3.5048828 0 3.5048828c65.704315 0 65.704315 0 65.704315 0c0 102.3651 0 102.3651 0 102.3651c-7.6887665 0 -7.6887665 0 -7.6887665 0c0 -92.54881 0 -92.54881 0 -92.54881c0 -0.7013855 -0.6981201 -1.4027557 -2.0970612 -1.4027557c-55.918488 0 -55.918488 0 -55.918488 0c0 3.50589 0 3.50589 0 3.50589c54.52089 0 54.52089 0 54.52089 0c0 100.96335 0 100.96335 0 100.96335c-146.0867 0 -146.0867 0 -146.0867 0c0 -100.96335 0 -100.96335 0 -100.96335c25.861492 0 25.861492 0 25.861492 0c-0.69810486 -1.4017639 -1.397583 -2.1031342 -1.397583 -3.50589c-13.280487 0 -13.280487 0 -13.280487 0c0 -8.413528 0 -8.413528 0 -8.413528c12.581009 0 12.581009 0 12.581009 0c0 -3.5048828 0 -3.5048828 0 -3.5048828c-14.67807 0 -14.67807 0 -14.67807 0c-0.69947815 0 -1.3975906 1.4017487 -1.3975906 2.1031342c0 9.815277 0 9.815277 0 9.815277c-9.785835 0 -9.785835 0 -9.785835 0c-0.69947433 0 -1.397583 0.70137024 -1.397583 1.4027557c0 105.1696 0 105.1696 0 105.1696c0 0.7013855 0.6981087 1.402771 1.397583 1.402771c149.58136 0 149.58136 0 149.58136 0c1.398941 0 2.0970612 -0.7013855 2.0970612 -1.402771c0 -9.816284 0 -9.816284 0 -9.816284c9.785828 0 9.785828 0 9.785828 0c0.69947815 0 1.3989563 -0.7003784 1.3989563 -1.4017639c0 -105.169586 0 -105.169586 0 -105.169586c0 -0.7013855 -0.69947815 -2.1031342 -1.3989563 -2.1031342z" fill-rule="evenodd"/><path fill="#ffffff" d="m122.85357 241.20518c-45.456467 0 -45.456467 0 -45.456467 0c-0.6992111 0 -1.3984222 0.72509766 -1.3984222 1.45018c0 0.7250824 0.6992111 1.4501648 1.3984222 1.4501648c45.456467 0 45.456467 0 45.456467 0c1.3984222 0 2.0980453 -0.7250824 2.0980453 -1.4501648c0 -0.7250824 -0.6996231 -1.45018 -2.0980453 -1.45018z" fill-rule="evenodd"/><path fill="#ffffff" d="m122.85357 274.804c-45.456467 0 -45.456467 0 -45.456467 0c-0.6992111 0 -1.3984222 0.7055054 -1.3984222 1.4109802c0 1.4109802 0.6992111 2.116455 1.3984222 2.116455c45.456467 0 45.456467 0 45.456467 0c1.3984222 0 2.0980453 -0.70547485 2.0980453 -2.116455c0 -0.70547485 -0.6996231 -1.4109802 -2.0980453 -1.4109802z" fill-rule="evenodd"/><path fill="#ffffff" d="m122.85357 252.40479c-45.456467 0 -45.456467 0 -45.456467 0c-0.6992111 0 -1.3984222 0.7054901 -1.3984222 1.4109802c0 0.7054901 0.6992111 2.116455 1.3984222 2.116455c45.456467 0 45.456467 0 45.456467 0c1.3984222 0 2.0980453 -1.410965 2.0980453 -2.116455c0 -0.7054901 -0.6996231 -1.4109802 -2.0980453 -1.4109802z" fill-rule="evenodd"/><path fill="#ffffff" d="m122.85357 263.6044c-45.456467 0 -45.456467 0 -45.456467 0c-0.6992111 0 -1.3984222 0.70547485 -1.3984222 1.4109497c0 1.4109802 0.6992111 2.1164856 1.3984222 2.1164856c45.456467 0 45.456467 0 45.456467 0c1.3984222 0 2.0980453 -0.7055054 2.0980453 -2.1164856c0 -0.70547485 -0.6996231 -1.4109497 -2.0980453 -1.4109497z" fill-rule="evenodd"/><path fill="#ffffff" d="m193.45216 230.00558c-11.89679 0 -11.89679 0 -11.89679 0c-0.6999359 0 -1.3998566 0.7020111 -1.3998566 1.4040222c0 11.936218 0 11.936218 0 11.936218c0 0.7020111 0.69992065 1.4044342 1.3998566 1.4044342c3.4991302 0 3.4991302 0 3.4991302 0c0 9.127365 0 9.127365 0 9.127365c-16.795776 0 -16.795776 0 -16.795776 0c0 -9.127365 0 -9.127365 0 -9.127365c3.4991455 0 3.4991455 0 3.4991455 0c0.6994324 0 1.3993683 -0.7024231 1.3993683 -1.4044342c0 -11.936218 0 -11.936218 0 -11.936218c0 -0.7020111 -0.6999359 -1.4040222 -1.3993683 -1.4040222c-11.897278 0 -11.897278 0 -11.897278 0c-0.69944763 0 -1.3993683 0.7020111 -1.3993683 1.4040222c0 11.936218 0 11.936218 0 11.936218c0 0.7020111 0.69992065 1.4044342 1.3993683 1.4044342c5.5989227 0 5.5989227 0 5.5989227 0c0 9.127365 0 9.127365 0 9.127365c-18.895569 0 -18.895569 0 -18.895569 0c0 -9.127365 0 -9.127365 0 -9.127365c3.4991455 0 3.4991455 0 3.4991455 0c0.69992065 0 1.3998566 -0.7024231 1.3998566 -1.4044342c0 -11.936218 0 -11.936218 0 -11.936218c0 -0.7020111 -0.6999359 -1.4040222 -1.3998566 -1.4040222c-11.89679 0 -11.89679 0 -11.89679 0c-0.69992065 0 -1.3993683 0.7020111 -1.3993683 1.4040222c0 11.936218 0 11.936218 0 11.936218c0 0.7020111 0.69944763 1.4044342 1.3993683 1.4044342c5.5984344 0 5.5984344 0 5.5984344 0c0 10.531799 0 10.531799 0 10.531799c0 0.7020111 0.69992065 1.404007 1.3998566 1.404007c20.294922 0 20.294922 0 20.294922 0c0 9.829773 0 9.829773 0 9.829773c-17.495712 0 -17.495712 0 -17.495712 0c-0.69992065 0 -1.3998566 0.7024231 -1.3998566 1.4044495c0 9.829773 0 9.829773 0 9.829773c0 0.70202637 0.6999359 1.404419 1.3998566 1.404419c35.690857 0 35.690857 0 35.690857 0c0.69992065 0 1.3998413 -0.7023926 1.3998413 -1.404419c0 -9.829773 0 -9.829773 0 -9.829773c0 -0.70202637 -0.69992065 -1.4044495 -1.3998413 -1.4044495c-15.395935 0 -15.395935 0 -15.395935 0c0 -9.829773 0 -9.829773 0 -9.829773c18.195145 0 18.195145 0 18.195145 0c0.69992065 0 1.3998566 -0.70199585 1.3998566 -1.404007c0 -10.531799 0 -10.531799 0 -10.531799c5.5984344 0 5.5984344 0 5.5984344 0c0.69992065 0 1.399353 -0.7024231 1.399353 -1.4044342c0 -11.936218 0 -11.936218 0 -11.936218c0 -0.7020111 -0.6994324 -1.4040222 -1.399353 -1.4040222zm-32.19171 11.935822c0 -9.127365 0 -9.127365 0 -9.127365c9.097565 0 9.097565 0 9.097565 0c0 9.127365 0 9.127365 0 9.127365c-2.099289 0 -2.099289 0 -2.099289 0c-2.7992096 0 -2.7992096 0 -2.7992096 0l-4.199066 0zm-21.69429 0c0 -9.127365 0 -9.127365 0 -9.127365c9.097565 0 9.097565 0 9.097565 0c0 9.127365 0 9.127365 0 9.127365c-2.0997772 0 -2.0997772 0 -2.0997772 0c-2.7992096 0 -2.7992096 0 -2.7992096 0l-4.198578 0zm42.688644 27.3833c0 7.020935 0 7.020935 0 7.020935c-32.891144 0 -32.891144 0 -32.891144 0c0 -7.020935 0 -7.020935 0 -7.020935c16.095856 0 16.095856 0 16.095856 0c2.7992096 0 2.7992096 0 2.7992096 0l13.9960785 0zm9.797501 -27.3833c-4.198578 0 -4.198578 0 -4.198578 0c-2.7992249 0 -2.7992249 0 -2.7992249 0c-2.0997772 0 -2.0997772 0 -2.0997772 0c0 -9.127365 0 -9.127365 0 -9.127365c9.09758 0 9.09758 0 9.09758 0l0 9.127365z" fill-rule="evenodd"/><path fill="#000000" d="m176.5785 155.70972c-0.69929504 -1.4026337 -11.878555 -24.548843 -20.263016 -38.577003c-2.794815 -3.5075073 -5.58963 -6.3127747 -9.082962 -8.415794c0 -37.17623 0 -37.17623 0 -37.17623c6.9874268 0 6.9874268 0 6.9874268 0c1.3970184 0 2.0955353 -0.70038605 2.0955353 -2.1030197c0 -69.438614 0 -69.438614 0 -69.438614c-3.493332 0 -3.493332 0 -3.493332 0c0 68.03598 0 68.03598 0 68.03598c-60.08896 0 -60.08896 0 -60.08896 0c0 -68.03598 0 -68.03598 0 -68.03598c-2.794815 0 -2.794815 0 -2.794815 0c0 69.438614 0 69.438614 0 69.438614c0 1.4026337 0.6985092 2.1030197 1.397789 2.1030197c7.685173 0 7.685173 0 7.685173 0c0 37.17623 0 37.17623 0 37.17623c-8.384453 5.610527 -13.274803 14.728561 -13.274803 23.846588c0 53.307434 0 53.307434 0 53.307434c0 5.6105194 4.8903503 9.820267 9.781471 9.820267c2.794815 0 4.8911285 -0.70224 6.288147 -2.1048737c0 8.417648 0 8.417648 0 8.417648c0 5.6105194 4.891121 9.81842 9.782249 9.81842c2.794815 0 4.891121 -0.7003937 6.288147 -2.1030273c0 3.505661 0 3.505661 0 3.505661c0 4.910141 4.1926117 9.119888 9.782249 9.119888c5.58963 0 9.781479 -4.2097473 9.781479 -9.119888c0 -3.505661 0 -3.505661 0 -3.505661c1.3977814 1.4026337 4.1926117 2.1030273 6.28891 2.1030273c5.5896454 0 9.781479 -4.207901 9.781479 -9.81842c0 -48.397293 0 -48.397293 0 -48.397293c11.1792755 12.625549 11.1792755 12.625549 11.1792755 12.625549c0 0 0 0.7003784 0 0.7003784c3.4940948 2.104889 8.384445 2.104889 11.17926 -0.7003784c2.7955933 -2.8071136 2.7955933 -7.0150146 0.69929504 -10.522522zm-74.762344 -83.46678c41.923035 0 41.923035 0 41.923035 0c0 11.923294 0 11.923294 0 11.923294c-10.480759 0 -10.480759 0 -10.480759 0c0 -2.8052597 0 -2.8052597 0 -2.8052597c0 -0.7003937 -0.6985016 -2.1030273 -1.3977966 -2.1030273c-17.467415 0 -17.467415 0 -17.467415 0c-1.3977966 0 -2.0963058 1.4026337 -2.0963058 2.1030273c0 2.8052597 0 2.8052597 0 2.8052597c-10.480759 0 -10.480759 0 -10.480759 0l0 -11.923294zm41.923035 15.430801c0 4.9101334 0 4.9101334 0 4.9101334c-10.480759 0 -10.480759 0 -10.480759 0c0 -4.9101334 0 -4.9101334 0 -4.9101334l10.480759 0zm-13.974091 -4.2078934c0 14.028168 0 14.028168 0 14.028168c-13.275574 0 -13.275574 0 -13.275574 0c0 -14.028168 0 -14.028168 0 -14.028168l13.275574 0zm-27.948944 4.2078934c10.480759 0 10.480759 0 10.480759 0c0 4.9101334 0 4.9101334 0 4.9101334c-10.480759 0 -10.480759 0 -10.480759 0l0 -4.9101334zm71.268234 76.45363c-1.3970184 1.4026337 -4.1918335 1.4026337 -6.288147 0c-13.974091 -16.133057 -13.974091 -16.133057 -13.974091 -16.133057c0 -0.7003784 -0.6985016 -1.4026184 -1.3970184 -0.7003784c-0.6992798 0 -1.3977966 0.7003784 -1.3977966 1.4026337c0 53.30742 0 53.30742 0 53.30742c0 3.5056458 -2.0962982 6.3127594 -5.58963 6.3127594c-3.493332 0.7003937 -6.9874268 -2.1048737 -6.9874268 -6.3127594c0 -28.75859 0 -28.75859 0 -28.75859c0 -1.4026337 -0.69851685 -2.1048737 -2.0955353 -2.1048737c0 0 0 0 0 0c-0.69929504 0 -1.3977966 0.70224 -1.3977966 2.1048737c0 28.75859 0 28.75859 0 28.75859c0 10.52066 0 10.52066 0 10.52066c0 3.5075073 -2.0963135 6.3127747 -5.5896454 7.013153c-3.4933243 0 -6.9866486 -2.805252 -6.9866486 -6.3127594c0 -11.221054 0 -11.221054 0 -11.221054c0 -28.75859 0 -28.75859 0 -28.75859c0 -1.4026337 -0.6992874 -2.1048737 -1.3977966 -2.1048737c0 0 0 0 0 0c-1.3970261 0 -2.0963058 0.70224 -2.0963058 2.1048737c0 28.75859 0 28.75859 0 28.75859c0 3.5056458 -2.0963058 6.3127594 -5.5896378 6.3127594c-3.4933243 0.7003937 -6.986656 -2.1048737 -6.986656 -6.3127594c0 -16.133041 0 -16.133041 0 -16.133041c0 -21.043198 0 -21.043198 0 -21.043198c0 -0.7003784 -0.6992874 -1.4026184 -1.3977966 -1.4026184c0 0 0 0 0 0c-1.3970184 0 -2.0963058 0.70224 -2.0963058 1.4026184c0 21.043198 0 21.043198 0 21.043198c0 3.507492 -2.0955353 6.3127594 -5.5896378 6.3127594c-3.4933243 0.7003937 -6.986656 -2.1048737 -6.986656 -6.3127594c0 -53.307434 0 -53.307434 0 -53.307434c0 -8.415787 4.8911285 -16.833427 11.877785 -21.041328c0.6985092 -0.70224 0.6985092 -0.70224 0.6985092 -1.402626c0 -13.327782 0 -13.327782 0 -13.327782c10.480759 0 10.480759 0 10.480759 0c0 2.1048737 0 2.1048737 0 2.1048737c0 1.4026337 0.6985092 2.1048737 2.0963058 2.1048737c17.467415 0 17.467415 0 17.467415 0c0.69929504 0 1.3977966 -0.70224 1.3977966 -2.1048737c0 -2.1048737 0 -2.1048737 0 -2.1048737c10.480759 0 10.480759 0 10.480759 0c0 12.625534 0 12.625534 0 12.625534c0 0.7022476 0 1.4026337 0.69851685 1.4026337c3.493332 2.1048737 6.9874268 4.910141 9.082962 8.417648c9.08374 14.028175 20.263 37.874763 20.263 38.577003c0 0 0 0 0 0c1.3970337 2.1048737 1.3970337 4.207901 -0.6992798 6.3127747z" fill-rule="evenodd"/><path fill="#ffffff" d="m723.77454 111.71069c3.4294434 5.5767517 3.4294434 5.5767517 3.4294434 5.5767517c0.6859131 1.394104 1.3718262 1.394104 2.7435913 0.697052c0 0 0.68585205 -0.697052 0.68585205 -1.3941879c0 0 0 -0.697052 0 -0.697052c-3.4294434 -6.2738037 -3.4294434 -6.2738037 -3.4294434 -6.2738037c-0.68585205 -0.697052 -2.0576782 -0.697052 -2.7435303 -0.697052c-0.6859131 0.697052 -0.6859131 2.09124 -0.6859131 2.788292z" fill-rule="evenodd"/><path fill="#ffffff" d="m736.20874 119.45718c0 0 0 0 0 0c0 -34.316826 0 -34.316826 0 -34.316826c0 -2.1011658 -1.395752 -4.2023315 -4.1870117 -4.2023315c-20.237549 0 -20.237549 0 -20.237549 0c-2.0934448 0 -4.1868286 2.1011658 -4.1868286 4.2023315c0 34.316826 0 34.316826 0 34.316826c0 2.1011658 2.0933838 4.201973 4.1868286 4.201973c17.445984 0 17.445984 0 17.445984 0c0.697876 -1.4005356 0.697876 -1.4005356 0.697876 -1.4005356c1.395813 -1.4005432 4.1870728 -2.8014374 6.2807007 -2.8014374zm-24.42456 0.700264c0 0 -0.6976929 -0.700264 -0.6976929 -0.700264c0 -34.316826 0 -34.316826 0 -34.316826c0 0 0.6976929 -0.700264 0.6976929 -0.700264c20.237549 0 20.237549 0 20.237549 0c0.69763184 0 0.69763184 0.700264 0.69763184 0.700264c0 34.316826 0 34.316826 0 34.316826c0 0 0 0.700264 -0.69763184 0.700264l-20.237549 0z" fill-rule="evenodd"/><path fill="#ffffff" d="m717.3673 117.28736c9.934692 -13.942993 9.934692 -13.942993 9.934692 -13.942993c0 0 0 -0.6970978 0 -0.6970978c0 -0.6970978 0 -0.6970978 0 -1.3941879c-9.934692 -13.943001 -9.934692 -13.943001 -9.934692 -13.943001c0 -0.6970978 -1.4191895 -1.3944626 -2.1287842 -0.6970978c-0.70965576 0.6970978 -1.4191895 1.3941956 -0.70965576 2.0912857c9.225037 13.943001 9.225037 13.943001 9.225037 13.943001c-9.225037 13.245903 -9.225037 13.245903 -9.225037 13.245903c-0.7095337 0.69709015 0 1.3941879 0.70965576 2.0912857c0.7095947 0.69709015 2.1287842 0.69709015 2.1287842 -0.6970978z" fill-rule="evenodd"/><path fill="#ffffff" d="m727.204 87.295006c-3.4294434 5.5767517 -3.4294434 5.5767517 -3.4294434 5.5767517c0 0.697052 0 2.09124 0.6859131 2.788292c0.68585205 0 2.0576782 0 2.7435303 -0.697052c3.4294434 -6.2738037 3.4294434 -6.2738037 3.4294434 -6.2738037c0 0 0 -0.697052 0 -0.697052c0 -0.6971359 -0.68585205 -1.3941879 -0.68585205 -1.3941879c-1.3717651 -0.697052 -2.0576782 0 -2.7435913 0.697052z" fill-rule="evenodd"/><path fill="#ffffff" d="m755.9216 68.26596c1.3984375 0 2.0977783 0 2.0977783 1.4008179c0.69940186 0.7009735 0 1.4013824 -0.6993408 2.1023636c0 0 -0.6993408 0 -0.6993408 0c11.888733 0 11.888733 0 11.888733 0c0 51.850723 0 51.850723 0 51.850723c0.6993408 -0.70040894 2.0980835 -0.70040894 3.4967651 -0.70040894c0 -51.150314 0 -51.150314 0 -51.150314c8.392029 0 8.392029 0 8.392029 0c4.196106 0 7.692871 3.5031815 7.692871 8.408318c0 44.843796 0 44.843796 0 44.843796c0 4.905136 -3.4967651 8.40831 -7.692871 8.40831c-1.3984375 0 -1.3984375 0 -1.3984375 0c0 1.4013977 -0.6993408 2.1023712 -1.3987427 3.503189c0 0 0 0 0 0c2.7971802 0 2.7971802 0 2.7971802 0c6.2941895 0 11.189697 -5.6049805 11.189697 -11.911499c0 -44.843796 0 -44.843796 0 -44.843796c0 -7.006935 -4.895508 -11.911499 -11.189697 -11.911499c-24.476624 0 -24.476624 0 -24.476624 0c0 0 0 0 0 0c0 0 0 0 0 0z" fill-rule="evenodd"/><path fill="#ffffff" d="m673.16895 80.17746c0 44.843796 0 44.843796 0 44.843796c0 6.3065186 4.90979 11.911499 11.924683 11.911499c35.07251 0 35.07251 0 35.07251 0c0 -1.4008179 0 -2.8022003 0.7015381 -3.503189c-24.550903 0 -24.550903 0 -24.550903 0c0 -61.660423 0 -61.660423 0 -61.660423c14.028992 0 14.028992 0 14.028992 0c-0.7015991 -1.4013901 -1.402771 -2.8027725 -1.402771 -3.5031815c-23.849365 0 -23.849365 0 -23.849365 0c-7.0148926 0 -11.924683 4.904564 -11.924683 11.911499zm19.64038 -8.408318c0 61.660423 0 61.660423 0 61.660423c-7.7156982 0 -7.7156982 0 -7.7156982 0c-4.9101562 0 -8.417603 -3.5031738 -8.417603 -8.40831c0 -44.843796 0 -44.843796 0 -44.843796c0 -4.905136 3.5074463 -8.408318 8.417603 -8.408318l7.7156982 0z" fill-rule="evenodd"/><path fill="#ffffff" d="m781.8482 90.08979c0 -0.6978836 -0.70544434 -2.0936432 -1.4109497 -2.0936432c-1.4109497 0 -2.116455 1.3957596 -2.116455 2.0936432c0 25.122238 0 25.122238 0 25.122238c0 0.6978836 0.7055054 1.3955231 2.116455 1.3955231c0.7055054 0 1.4109497 -0.69763947 1.4109497 -1.3955231l0 -25.122238z" fill-rule="evenodd"/><path fill="#ffffff" d="m680.8428 102.60713c0 2.1262589 1.4175415 4.2525177 4.2525635 4.2525177c2.1262207 0 4.2525024 -2.1262589 4.2525024 -4.2525177c0 -2.8350067 -2.1262817 -4.2525177 -4.2525024 -4.2525177c-2.835022 0 -4.2525635 1.417511 -4.2525635 4.2525177zm4.9613037 0c0 0 -0.70874023 0.7087555 -0.70874023 0.7087555c-0.70880127 0 -0.70880127 -0.7087555 -0.70880127 -0.7087555c0 -0.70874786 0 -0.70874786 0.70880127 -0.70874786c0 0 0.70874023 0 0.70874023 0.70874786z" fill-rule="evenodd"/><path fill="#000000" d="m716.7131 147.23965c3.5027466 -9.752548 3.5027466 -9.752548 3.5027466 -9.752548c0 0 0 0 0 0.6965637c0 2.0897064 0.70098877 4.179718 2.8024292 5.5728455c1.4012451 1.3931274 4.203003 2.7865753 6.3045044 2.0896912c2.8024292 0 4.9039307 -1.3931274 6.305176 -2.786255c3.5027466 -4.8762817 3.5027466 -4.8762817 3.5027466 -4.8762817c0.70092773 2.0897064 1.4011841 4.179718 3.5026855 5.5728455c1.4012451 1.3931274 4.2036743 2.7865753 6.305176 2.0896912c2.1015015 0 4.203003 -1.3931274 6.3045044 -2.786255c2.8024292 -3.483139 2.8024292 -3.483139 2.8024292 -3.483139c0 1.3931274 1.4012451 2.7865753 2.1015015 4.1797028c2.1015015 1.3931274 4.2036743 2.0896912 6.305176 2.0896912c2.1015015 -0.6965637 4.203003 -1.3931274 5.604187 -2.786255c5.604248 -6.2697144 5.604248 -6.2697144 5.604248 -6.2697144c1.4011841 -2.0897064 2.1021729 -3.4828339 2.1021729 -5.5728455c0 -2.786255 -1.4012451 -4.8762665 -2.8024902 -6.269394c-3.5026855 -2.7865753 -9.106873 -2.7865753 -11.909363 0.6965637c-2.8024292 3.483139 -2.8024292 3.483139 -2.8024292 3.483139c-0.70025635 -2.090004 -1.4005737 -3.483139 -2.8017578 -4.876274c-2.1015015 -1.3934326 -4.2036743 -2.090004 -6.305176 -2.090004c-2.8017578 0 -4.9039917 1.3934402 -6.3045044 2.7865753c-1.4012451 2.0896988 -1.4012451 2.0896988 -1.4012451 2.0896988c0 -2.0896988 -1.4011841 -4.1797028 -2.8024292 -5.572838c-4.203003 -2.7865753 -9.807861 -2.7865753 -12.609619 0.6965637c-7.706421 9.055969 -7.706421 9.055969 -7.706421 9.055969c-1.4005127 1.3934479 -2.1015015 3.483139 -2.1015015 5.5728455c-3.5027466 0 -3.5027466 0 -3.5027466 0c-2.8017578 9.055969 -2.8017578 9.055969 -2.8017578 9.055969c-1.4011841 3.483139 -4.9039307 5.5731506 -8.406616 4.1797028c-3.5027466 -0.6965637 -4.9039917 -4.1797028 -4.2036743 -7.6625214c1.4011841 -5.5731506 1.4011841 -5.5731506 1.4011841 -5.5731506c-3.5026855 0 -3.5026855 0 -3.5026855 0c-1.4012451 4.8762665 -1.4012451 4.8762665 -1.4012451 4.8762665c-1.4005127 4.876587 1.4012451 10.449417 7.005432 11.842545c4.9039307 2.0897064 10.508179 -1.3931274 11.909363 -6.269394zm51.14032 -19.505394c1.4005127 -2.0896988 4.9031982 -2.0896988 6.3044434 0c2.1015015 1.3934402 2.8024292 4.1797104 0.70098877 6.2697067c-5.6049194 6.269409 -5.6049194 6.269409 -5.6049194 6.269409c-0.70025635 1.3931274 -1.4005127 1.3931274 -2.8017578 2.0900116c-1.4012451 0 -2.8024902 -0.69688416 -3.5027466 -1.3934479c-2.1015015 -2.0896912 -2.1015015 -4.8762665 -0.70092773 -6.965973l5.6049194 -6.2697067zm-14.711853 -2.0896988c1.4011841 0 2.8024292 0.6965637 4.2036743 1.3931351c0.70025635 0.6965637 1.4005127 2.090004 1.4005127 3.4831314c0.70098877 1.3931427 0 2.7865753 -0.70025635 4.1797028c-5.604187 6.269409 -5.604187 6.269409 -5.604187 6.269409c-1.4012451 0.6965637 -2.1015015 1.3934479 -3.5027466 1.3934479c-1.4012451 0 -2.8024292 0 -4.2036743 -1.3934479c-1.4005127 -0.6965637 -2.1015015 -2.0896912 -2.1015015 -3.4828339c0 0 0 0 0 0c0 -1.3934326 0.70098877 -2.7865753 1.4012451 -3.483139c5.604187 -6.2697067 5.604187 -6.2697067 5.604187 -6.2697067c0.70098877 -1.3931351 2.1015015 -2.0896988 3.5027466 -2.0896988zm-28.722046 8.3594055c8.406006 -9.055969 8.406006 -9.055969 8.406006 -9.055969c1.4011841 -2.7865753 4.9039307 -2.7865753 7.0061035 -0.69657135c2.8017578 2.0896988 2.8017578 4.876274 0.70025635 7.6625443c-7.70636 9.055969 -7.70636 9.055969 -7.70636 9.055969c-0.7003174 0.6965637 -2.1015015 1.3934479 -3.5027466 1.3934479c-1.4005127 0 -2.8017578 0 -4.203003 -1.3934479c-0.70025635 -0.6965637 -1.4011841 -2.0896912 -1.4011841 -3.4828339c-0.7003174 -1.3934326 0 -2.7865753 0.70092773 -3.483139z" fill-rule="evenodd"/><path fill="#000000" d="m789.57404 132.57726c28.755371 -21.62513 28.755371 -21.62513 28.755371 -21.62513c10.520264 0 10.520264 0 10.520264 0c0 11.859215 0 11.859215 0 11.859215c0 0.6977768 0.7007446 1.395546 1.4015503 1.395546c129.74872 0 129.74872 0 129.74872 0c0 -3.4881363 0 -3.4881363 0 -3.4881363c-93.9812 0 -93.9812 0 -93.9812 0c0 -71.15387 0 -71.15387 0 -71.15387c93.9812 0 93.9812 0 93.9812 0c0 -3.4881325 0 -3.4881325 0 -3.4881325c-129.74872 0 -129.74872 0 -129.74872 0c-0.70080566 0 -1.4015503 0.697773 -1.4015503 2.0933113c0 9.068138 0 9.068138 0 9.068138c-25.24939 0 -25.24939 0 -25.24939 0c-28.052551 -9.068138 -28.052551 -9.068138 -28.052551 -9.068138c-2.1044312 -0.69776917 -4.909668 -0.69776917 -7.714966 0c-58.21161 16.0444 -58.21161 16.0444 -58.21161 16.0444c-0.7007446 0.6977768 -1.4015503 1.3948212 -1.4015503 2.0925903c0 0 0.70080566 5.5807266 4.907593 9.068863c3.5081787 2.0925903 8.4157715 3.4874115 14.028381 2.7903595c14.727051 -2.0933151 29.456177 -6.278496 30.156982 -6.278496c0.70080566 -0.69776917 1.4016113 -1.3955383 0.70080566 -2.0925903c0 -1.3955383 -0.70080566 -1.3955383 -2.1044922 -1.3955383c0 0 -14.727051 4.185898 -29.456177 6.278488c-4.909729 0.6977768 -8.4157715 0 -10.520203 -2.0925903c-2.102417 -2.0933075 -3.5060425 -4.185898 -3.5060425 -5.580719c56.107117 -15.347355 56.107117 -15.347355 56.107117 -15.347355c2.1044922 -0.6970482 4.2089233 -0.6970482 6.3112793 0c28.054626 9.068859 28.054626 9.068859 28.054626 9.068859c0 0 0.70080566 0 0.70080566 0c25.24939 0 25.24939 0 25.24939 0c0 46.73838 0 46.73838 0 46.73838c-11.223145 0 -11.223145 0 -11.223145 0c0 0 -0.7007446 0 -0.7007446 0c-25.247314 18.834763 -25.247314 18.834763 -25.247314 18.834763c0 2.092598 -0.70288086 4.1851883 -2.1044312 6.2777786zm42.781677 -83.012375c30.156982 0 30.156982 0 30.156982 0c0 71.15387 0 71.15387 0 71.15387c-30.156982 0 -30.156982 0 -30.156982 0l0 -71.15387z" fill-rule="evenodd"/><path fill="#000000" d="m851.33374 108.20704c0 -2.1262589 -1.3967896 -4.2525177 -4.1902466 -4.2525177c-2.0950317 0 -3.4917603 2.1262589 -3.4917603 4.2525177c0 2.1262589 1.3967285 4.25251 3.4917603 4.25251c2.793457 0 4.1902466 -2.1262512 4.1902466 -4.25251zm-4.1902466 0c0 -0.7087555 0 -0.7087555 0 -0.7087555c0.69836426 0 0.69836426 0 0.69836426 0.7087555c0 0 0 0.70874786 -0.69836426 0.70874786c0 0 0 -0.70874786 0 -0.70874786z" fill-rule="evenodd"/><path fill="#ffffff" d="m222.52785 491.86707c3.6994324 0 7.3986816 -2.949524 7.3986816 -6.6364746c0 -11.797821 0 -11.797821 0 -11.797821c0 -13.2724 0 -13.2724 0 -13.2724c-3.6992493 0 -3.6992493 0 -3.6992493 0c0 11.060333 0 11.060333 0 11.060333c-5.1792145 0 -5.1792145 0 -5.1792145 0c0 -11.060333 0 -11.060333 0 -11.060333c-3.6992493 0 -3.6992493 0 -3.6992493 0c0 11.060333 0 11.060333 0 11.060333c-5.1792145 0 -5.1792145 0 -5.1792145 0c0 -11.060333 0 -11.060333 0 -11.060333c-3.6994324 0 -3.6994324 0 -3.6994324 0c0 13.2724 0 13.2724 0 13.2724c0 11.797821 0 11.797821 0 11.797821c0 0 0 0 0 0c0 1.474884 0.7398834 3.6869507 2.2196655 5.16156c1.4797668 0.7374573 3.6994324 1.4749146 5.179199 1.4749146l6.6588135 0zm-10.358246 -14.747314c0 -2.2123413 0 -2.2123413 0 -2.2123413c14.057678 0 14.057678 0 14.057678 0c0 2.2123413 0 2.2123413 0 2.2123413l-14.057678 0zm1.4797821 10.3229065c-0.7398987 -0.7371826 -1.4797821 -1.4746399 -1.4797821 -2.2120667c0 0 0 0 0 0c0 -4.424164 0 -4.424164 0 -4.424164c14.057678 0 14.057678 0 14.057678 0c0 4.424164 0 4.424164 0 4.424164c0 1.474884 -2.2196655 2.9494934 -3.6994324 2.9494934c-6.6588135 0 -6.6588135 0 -6.6588135 0c-0.7398834 0 -1.4797668 0 -2.2196503 -0.73742676z" fill-rule="evenodd"/><path fill="#ffffff" d="m229.18683 362.9259c-8.138763 -16.216003 -8.138763 -16.216003 -8.138763 -16.216003c-0.7398834 -0.73703 -1.4797668 -0.73703 -2.2194824 -0.73703c0 0 -0.7398834 0 -1.4797668 0.73703c-8.138763 16.216003 -8.138763 16.216003 -8.138763 16.216003c-0.7398834 0 -0.7398834 0.73706055 -0.7398834 0.73706055c0 30.221313 0 30.221313 0 30.221313c3.6994324 0 3.6994324 0 3.6994324 0c0 -28.009796 0 -28.009796 0 -28.009796c1.4797821 0 1.4797821 0 1.4797821 0c3.6994324 3.6851807 3.6994324 3.6851807 3.6994324 3.6851807c0 24.324615 0 24.324615 0 24.324615c3.6992493 0 3.6992493 0 3.6992493 0c0 -24.324615 0 -24.324615 0 -24.324615c3.6994324 -3.6851807 3.6994324 -3.6851807 3.6994324 -3.6851807c1.4797821 0 1.4797821 0 1.4797821 0c0 28.009796 0 28.009796 0 28.009796c3.6992493 0 3.6992493 0 3.6992493 0c0 -30.221313 0 -30.221313 0 -30.221313c0 0 0 -0.73706055 -0.7397003 -0.73706055zm-11.098129 -9.582275c0.7398834 -1.47406 0.7398834 -1.47406 0.7398834 -1.47406c1.479599 1.47406 1.479599 1.47406 1.479599 1.47406l-2.2194824 0zm0.7398834 12.530853c-2.959549 -3.685608 -2.959549 -3.685608 -2.959549 -3.685608c-0.7398834 0 -0.7398834 0 -1.4797668 0c-0.7398834 0 -0.7398834 0 -0.7398834 0c2.959549 -5.159668 2.959549 -5.159668 2.959549 -5.159668c5.179016 0 5.179016 0 5.179016 0c2.959549 5.159668 2.959549 5.159668 2.959549 5.159668c-0.7398834 0 -0.7398834 0 -0.7398834 0c-0.7398834 0 -0.7398834 0 -1.4797668 0l-3.6992645 3.685608z" fill-rule="evenodd"/><path fill="#000000" d="m162.69963 396.03568c-27.360855 0 -27.360855 0 -27.360855 0c0 -8.844269 0 -8.844269 0 -8.844269c0 -0.7369385 -0.7398834 -1.4739075 -2.2196503 -1.4739075c-133.11119 0 -133.11119 0 -133.11119 0c0 3.6854858 0 3.6854858 0 3.6854858c131.63356 0 131.63356 0 131.63356 0c0 67.06842 0 67.06842 0 67.06842c-131.63356 0 -131.63356 0 -131.63356 0c0 3.6855164 0 3.6855164 0 3.6855164c133.11119 0 133.11119 0 133.11119 0c1.4797668 0 2.2196503 -0.7376404 2.2196503 -1.4746094c0 -8.844238 0 -8.844238 0 -8.844238c27.360855 0 27.360855 0 27.360855 0c5.177063 5.896393 13.311539 10.318848 22.185913 10.318848c15.529068 0 15.529068 0 15.529068 0c12.571655 0 12.571655 0 12.571655 0c18.488617 0 18.488617 0 18.488617 0c5.1749268 0 9.612106 -4.422455 9.612106 -10.318848c0 -2.210907 -0.7398834 -3.6848145 -2.217514 -5.1587524c2.9573975 0 2.9573975 0 2.9573975 0c5.1770782 0 9.614258 -4.422455 9.614258 -10.318176c0 -2.2115479 -0.7398834 -4.422455 -2.2196655 -5.8963623c4.437195 -0.736969 7.3945923 -4.4217834 7.3945923 -9.581207c0 -4.422455 -2.9573975 -8.1073 -7.3945923 -8.844238c1.4797821 -2.210907 2.2196655 -4.4217834 2.2196655 -6.633362c0 -5.1587524 -4.4371796 -9.581207 -9.614258 -9.581207c-46.58934 0 -46.58934 0 -46.58934 0c0 3.6855164 0 3.6855164 0 3.6855164c46.58934 0 46.58934 0 46.58934 0c2.9574127 0 5.9169617 2.9478455 5.9169617 5.895691c0 3.6854858 -2.959549 5.896393 -5.9169617 5.896393c-15.529068 0 -15.529068 0 -15.529068 0c-10.354126 0 -10.354126 0 -10.354126 0c0 3.6848145 0 3.6848145 0 3.6848145c10.354126 0 10.354126 0 10.354126 0c15.529068 0 15.529068 0 15.529068 0c5.1770782 0 5.1770782 0 5.1770782 0c2.9574127 0 5.91481 2.9485168 5.91481 5.896393c0 3.6848145 -2.9573975 5.896393 -5.91481 5.896393c-5.1770782 0 -5.1770782 0 -5.1770782 0c-15.529068 0 -15.529068 0 -15.529068 0c-10.354126 0 -10.354126 0 -10.354126 0c0 3.6848145 0 3.6848145 0 3.6848145c10.354126 0 10.354126 0 10.354126 0c15.529068 0 15.529068 0 15.529068 0c2.9574127 0 5.9169617 2.9478455 5.9169617 5.8963623c0 3.684845 -2.959549 5.8957214 -5.9169617 5.8957214c-10.35199 0 -10.35199 0 -10.35199 0c-15.531204 0 -15.531204 0 -15.531204 0c-5.174942 0 -5.174942 0 -5.174942 0c0 4.422455 0 4.422455 0 4.422455c5.174942 0 5.174942 0 5.174942 0c15.531204 0 15.531204 0 15.531204 0c2.9574127 0 5.91481 2.210907 5.91481 5.1587524c0 3.6854858 -2.9573975 5.896393 -5.91481 5.896393c-18.488617 0 -18.488617 0 -18.488617 0c-12.571655 0 -12.571655 0 -12.571655 0c-15.529068 0 -15.529068 0 -15.529068 0c-8.134491 0 -15.529083 -3.6848145 -19.966263 -10.318176c-2.2196503 0 -2.2196503 0 -2.2196503 0c-2.2175293 0 -2.2175293 0 -2.2175293 0c-25.143326 0 -25.143326 0 -25.143326 0c0 -44.95816 0 -44.95816 0 -44.95816c25.143326 0 25.143326 0 25.143326 0c1.4776306 0 1.4776306 0 1.4776306 0c2.959549 0 2.959549 0 2.959549 0c6.654709 -11.055145 17.746597 -18.425446 25.143326 -18.425446c18.48648 0 18.48648 0 18.48648 0c0 -3.6848145 0 -3.6848145 0 -3.6848145c-18.48648 0 -18.48648 0 -18.48648 0c-7.3967285 0 -19.968384 7.369629 -27.362976 17.687805z" fill-rule="evenodd"/><path fill="#ffffff" d="m839.47284 327.8371c19.548706 0 19.548706 0 19.548706 0c0.67407227 0 1.3480835 -0.6821289 1.3480835 -1.3642578c0 -0.6821289 -0.67401123 -2.0463867 -1.3480835 -2.0463867c-19.548706 0 -19.548706 0 -19.548706 0c-0.67401123 0 -1.3482056 1.3642578 -1.3482056 2.0463867c0 0.6821289 0.67419434 1.3642578 1.3482056 1.3642578z" fill-rule="evenodd"/><path fill="#ffffff" d="m839.47284 315.00296c19.548706 0 19.548706 0 19.548706 0c0.67407227 0 1.3480835 -0.6821289 1.3480835 -1.3642578c0 -1.3642578 -0.67401123 -2.0463867 -1.3480835 -2.0463867c-19.548706 0 -19.548706 0 -19.548706 0c-0.67401123 0 -1.3482056 0.6821289 -1.3482056 2.0463867c0 0.6821289 0.67419434 1.3642578 1.3482056 1.3642578z" fill-rule="evenodd"/><path fill="#ffffff" d="m884.6342 383.434c0 -0.6783142 0 -0.6783142 0 -0.6783142c0 0 0 -0.6772766 0 -0.6772766c0 -117.23956 0 -117.23956 0 -117.23956c0 -0.6772766 -0.6746216 -1.3555603 -1.3504639 -1.3555603c-137.17847 0 -137.17847 0 -137.17847 0c-0.6758423 0 -2.0275269 0.6782837 -2.0275269 1.3555603c0 117.91684 0 117.91684 0 117.91684c0 1.3555908 1.3516846 2.032898 2.0275269 2.032898c90.55115 0 90.55115 0 90.55115 0c0 -3.3874512 0 -3.3874512 0 -3.3874512c-89.19946 0 -89.19946 0 -89.19946 0c0 -114.52939 0 -114.52939 0 -114.52939c133.79926 0 133.79926 0 133.79926 0c0 114.52939 0 114.52939 0 114.52939c-25.002686 0 -25.002686 0 -25.002686 0c0 3.3874512 0 3.3874512 0 3.3874512c26.35437 0 26.35437 0 26.35437 0c0.6758423 0 1.3516846 -0.6773071 2.0263062 -1.3545837z" fill-rule="evenodd"/><path fill="#ffffff" d="m839.47284 301.96835c19.548706 0 19.548706 0 19.548706 0c0.67407227 0 1.3480835 -0.6821289 1.3480835 -2.0463867c0 -0.6821289 -0.67401123 -1.3642578 -1.3480835 -1.3642578c-19.548706 0 -19.548706 0 -19.548706 0c-0.67401123 0 -1.3482056 0.6821289 -1.3482056 1.3642578c0 1.3642578 0.67419434 2.0463867 1.3482056 2.0463867z" fill-rule="evenodd"/><path fill="#ffffff" d="m729.213 323.7222c0 3.4002075 2.7201538 6.1202393 6.1202393 6.1202393c3.4001465 0 6.120178 -2.7200317 6.120178 -6.1202393c0 -3.4000854 -2.7200317 -6.1202087 -6.120178 -6.1202087c-3.4000854 0 -6.1202393 2.7201233 -6.1202393 6.1202087zm8.840332 0c0 1.3601379 -1.3599854 2.7201538 -2.7200928 2.7201538c-2.0401 0 -2.7200317 -1.3600159 -2.7200317 -2.7201538c0 -1.3599854 0.67993164 -2.7200012 2.7200317 -2.7200012c1.3601074 0 2.7200928 1.3600159 2.7200928 2.7200012z" fill-rule="evenodd"/><path fill="#ffffff" d="m895.4631 340.6466c0 -33.835815 0 -33.835815 0 -33.835815c0 -0.6767578 -0.6821289 -2.0299683 -1.3642578 -2.0299683c-0.6821289 0 -2.0464478 1.3532104 -2.0464478 2.0299683c0 33.835815 0 33.835815 0 33.835815c0 1.3535156 1.3643188 2.0299683 2.0464478 2.0299683c0.6821289 0 1.3642578 -0.67645264 1.3642578 -2.0299683z" fill-rule="evenodd"/><path fill="#ffffff" d="m779.91516 301.9619c0 0 0 0 0 0c0 0 0 0 0 0c-8.119629 5.438385 -14.209473 14.275848 -14.209473 24.473022c0 15.636047 12.855957 27.872559 28.418945 27.872559c1.3534546 0 2.7069702 0 4.0599976 -0.67962646c0 0 0 0 0 0c0 0 0 0 0 0c13.533203 -2.0393372 23.682556 -13.596222 23.682556 -27.192932c0 -15.635559 -12.855896 -27.872559 -27.742554 -27.872559c-5.413086 0 -10.149414 1.3597107 -14.209473 3.3995361zm14.209473 48.946533c-13.532715 0 -25.036072 -10.876801 -25.036072 -24.47351c0 -8.837463 4.7367554 -16.315186 11.503357 -20.394348c11.502869 21.074432 11.502869 21.074432 11.502869 21.074432c4.0600586 23.793427 4.0600586 23.793427 4.0600586 23.793427c-0.6767578 0 -1.3535156 0 -2.0302124 0zm5.413513 -0.67962646c-4.0600586 -22.434174 -4.0600586 -22.434174 -4.0600586 -22.434174c23.006287 0 23.006287 0 23.006287 0c-1.3535156 10.877258 -8.796814 19.714722 -18.946228 22.434174zm18.946228 -25.833221c-23.683044 0 -23.683044 0 -23.683044 0c-11.502869 -20.394348 -11.502869 -20.394348 -11.502869 -20.394348c3.3833008 -1.3597107 6.7665405 -2.0393372 10.826172 -2.0393372c12.856384 0 23.006226 10.197174 24.359741 22.433685z" fill-rule="evenodd"/><path fill="#ffffff" d="m736.06976 394.81522c100.64734 0 100.64734 0 100.64734 0c0 -3.3861084 0 -3.3861084 0 -3.3861084c-100.64734 0 -100.64734 0 -100.64734 0c-6.080017 0 -11.484497 -5.4201355 -11.484497 -11.516327c0 -112.450836 0 -112.450836 0 -112.450836c0 -6.0973816 5.40448 -10.839111 11.484497 -10.839111c155.36133 0 155.36133 0 155.36133 0c6.080017 0 11.484497 4.7417297 11.484497 10.839111c-0.6755371 112.450836 -0.6755371 112.450836 -0.6755371 112.450836c0 6.0961914 -4.728943 11.516327 -10.80896 11.516327c-22.965881 0 -22.965881 0 -22.965881 0c1.3511353 0.6772156 2.7022705 1.3544617 3.3778076 3.3861084c19.588074 0 19.588074 0 19.588074 0c8.106689 0 14.186768 -6.773407 14.186768 -14.902435c0.67401123 -112.450836 0.67401123 -112.450836 0.67401123 -112.450836c0 0 0 0 0 0c0 -8.129028 -6.7540894 -14.225235 -14.860779 -14.225235c-155.36133 0 -155.36133 0 -155.36133 0c-8.106689 0 -14.862305 6.0962067 -14.862305 14.225235c0 112.450836 0 112.450836 0 112.450836c0 8.129028 6.755615 14.902435 14.862305 14.902435z" fill-rule="evenodd"/><path fill="#000000" d="m839.9668 472.16983c-6.760681 0 -6.760681 0 -6.760681 0c-1.3518066 0 -2.0285034 0.67819214 -2.0285034 2.034546c0 65.79697 0 65.79697 0 65.79697c3.38031 0 3.38031 0 3.38031 0c0 -64.44061 0 -64.44061 0 -64.44061c8.112488 0 8.112488 0 8.112488 0c0.6759033 0 0.6759033 0 0.6759033 0c49.350647 0 49.350647 0 49.350647 0c0 0 0.6759033 0 0.6759033 0c10.140991 0 10.140991 0 10.140991 0c0 64.44061 0 64.44061 0 64.44061c3.3795166 0 3.3795166 0 3.3795166 0c0 -65.79697 0 -65.79697 0 -65.79697c0 -1.3563538 -0.6759033 -2.034546 -2.02771 -2.034546c-10.140137 0 -10.140137 0 -10.140137 0c8.112427 -28.489563 8.112427 -28.489563 8.112427 -28.489563c1.3518066 -4.7487793 2.7036133 -10.17572 2.7036133 -15.601166c0 -16.959015 0 -16.959015 0 -16.959015c0 -5.426941 -4.7321167 -9.496002 -10.140137 -9.496002c-6.760681 0 -6.760681 0 -6.760681 0c-0.6759033 -3.3924255 -3.38031 -5.4269714 -6.7598267 -5.4269714c-9.465088 0 -9.465088 0 -9.465088 0c-0.6759033 -3.3908691 -3.38031 -5.426941 -6.7598267 -5.426941c-9.465088 0 -9.465088 0 -9.465088 0c0 -23.062622 0 -23.062622 0 -23.062622c0 -5.426941 -4.0562744 -10.17572 -9.464294 -10.17572c-6.0839233 0 -10.140198 4.7487793 -10.140198 10.17572c0 59.013702 0 59.013702 0 59.013702c-11.492798 -10.174225 -11.492798 -10.174225 -11.492798 -10.174225c-3.38031 -2.7127075 -8.112427 -2.7127075 -11.492737 0.67819214c-2.7036133 2.7127075 -3.380371 7.461487 -0.6759033 10.174194c0.6759033 2.0360718 18.252625 31.881989 27.04181 44.770416zm-23.661499 -52.910065c1.3518066 -1.3563538 4.7321167 -1.3563538 6.0839233 0c14.873108 12.210236 14.873108 12.210236 14.873108 12.210236c0.6759033 0.67819214 1.3518066 0.67819214 1.3518066 0.67819214c0.6759033 -0.67819214 1.3526611 -0.67819214 1.3526611 -1.3563538c0 -63.08429 0 -63.08429 0 -63.08429c0 -3.3924255 2.7036133 -6.7832947 6.7598267 -6.7832947c3.38031 0 6.084778 3.3908691 6.084778 6.7832947c0 40.69983 0 40.69983 0 40.69983c0 1.3563538 0.6759033 2.034546 2.02771 2.034546c0.6759033 0 1.3518066 -0.67819214 1.3518066 -2.034546c0 -14.2447815 0 -14.2447815 0 -14.2447815c9.465088 0 9.465088 0 9.465088 0c2.02771 0 3.3795166 1.3563538 3.3795166 3.3908997c0 10.853882 0 10.853882 0 10.853882c0 1.3563538 0.6766968 2.034546 2.0285034 2.034546c0.6759033 0 1.3518066 -0.67819214 1.3518066 -2.034546c0 -8.819366 0 -8.819366 0 -8.819366c9.465088 0 9.465088 0 9.465088 0c2.02771 0 3.3795166 1.3578796 3.3795166 3.3924255c0 10.853882 0 10.853882 0 10.853882c0 1.3563538 1.3526001 2.034546 2.0285034 2.034546c0.6759033 0 1.3518066 -0.67819214 1.3518066 -2.034546c0 -8.819366 0 -8.819366 0 -8.819366c6.760681 0 6.760681 0 6.760681 0c3.38031 0 6.7598267 2.7142334 6.7598267 6.105133c0 16.959015 0 16.959015 0 16.959015c0 5.4254456 -0.6759033 10.174225 -2.02771 14.922974c-8.788391 29.167755 -8.788391 29.167755 -8.788391 29.167755c-47.322144 0 -47.322144 0 -47.322144 0c-8.112488 -11.532074 -28.393616 -46.12677 -28.393616 -46.12677c0 0 0 0 0 0c-1.3526001 -2.034546 -1.3526001 -4.7472534 0.6759033 -6.7832947z" fill-rule="evenodd"/></g></svg>