<?xml version="1.0" encoding="utf-8"?>
<!-- Generator: Adobe Illustrator 21.0.0, SVG Export Plug-In . SVG Version: 6.00 Build 0)  -->
<svg version="1.1" id="Layer_1" xmlns="http://www.w3.org/2000/svg" xmlns:xlink="http://www.w3.org/1999/xlink" x="0px" y="0px"
	 viewBox="0 0 841.9 595.3" style="enable-background:new 0 0 841.9 595.3;" xml:space="preserve">
<style type="text/css">
	.st0{fill:#FFFFFF;}
</style>
<g>
	<path class="st0" d="M778.2,225.9c-8.1-9-15.9-18.4-24.3-27.1c-6.9-7.1-14.3-13.5-21.7-19.9c-7.8-6.8-15.5-14-23.9-19.7
		c-11.2-7.7-22.7-15.3-34.6-21c-23.8-11.3-49.1-15.3-74.5-15.5c-36.3-0.4-72.2,3.5-106.3,20.4c-12.9,6.4-25.8,12.8-38.6,19.6
		c-13.3,7.1-26.4,14.6-39.6,21.9c-16.2,9.1-33.8,13.2-51.1,17.2c-21.8,5.1-44.1,5.6-66.3,5.3c-16.1-0.2-32.2-1.1-48.3-1.8
		c-2.9-0.1-5.8-0.3-8.7-0.7c-9.2-1.3-17.8-6.7-27.4-4.6c-4.2,0.9-8.5,1.1-12.8,2c-9.8,2-19.7,3.8-29.4,6.6
		c-11.2,3.3-22.1,7.8-31.4,16.6c-4.5,4.2-8.4,8.8-8.8,16c-1.2,20,3.2,37.5,16.4,50.8c2.9,2.9,6.3,5,9.2,7.9
		c9.2,9,19.9,14.9,31.3,16.3c22.7,2.7,45.6,4.3,68.5,5.3c37.9,1.6,75.7,2.4,113.6,3.6c13.2,0.4,26.4,0.8,39.6,1.3
		c1.7,0.1,3.4,0.6,5.1,1c0,0.6-0.1,1.2-0.1,1.9c-1.6,0-3.2,0-4.8,0c-49.2-1.5-98.4-2.7-147.6-4.6c-23.3-0.9-46.5-3.1-69.7-4.9
		c-15.5-1.2-28.4-9.7-41.1-20c-13.1-10.7-20.1-25.1-22.6-43.2c-1.5-10.8-1.7-21.6,5.8-29.7c4-4.3,8.8-7.7,13.4-11.2
		c2.4-1.8,5.1-2.9,7.7-4.3c-3.3-4.3-6.1-8.4-9.3-12.1c-13.3-15.7-26.7-31.3-40.2-46.9c-8.4-9.8-17.5-18.9-25.4-29.3
		c-7.5-10-16.9-16.7-25.9-23.9c-10.9-8.7-22.9-11.4-36-10.6C11.3,88.9,6.3,91.8,2,98.1c-2.3,3.3-2.6,6.4-1,10.1
		c2.4,5.2,4.4,10.6,7.2,15.5c11.4,20.5,22.9,41,34.6,61.3c7.3,12.7,14.9,25.3,22.6,37.6c13.1,20.8,26.1,41.7,39.6,62.1
		c9.2,13.9,19.4,26.7,30.7,38.1c14.1,14.3,28.5,28.2,42.9,42.3c6.5,6.3,13.1,12.6,19.7,18.8c14.4,13.6,28.9,27.1,43.4,40.6
		c7,6.5,13.9,12.9,21,19.2c12.8,11.3,25.7,22.5,38.6,33.7c1.3,1.1,2.8,2,3.9,3.3c5.6,6.2,11.9,10.9,19.3,13.3
		c10.6,3.4,21.4,3.2,31.9,0.3c15.2-4.2,30.3-9.4,45.4-14.6c18.3-6.3,36.4-13,54.6-19.6c18.6-6.7,37.2-13.6,55.8-20.2
		c10-3.5,20-6.7,30.1-10c7.8-2.6,15.8-4.3,23.4-7.8c7.3-3.4,14.5-5.6,22.3-4c6.3,1.3,12.7,2.7,18.8,4.7c15.8,5.1,31.5,10.5,47.1,16
		c2.3,0.8,3.5,0.4,4.7-1.8c3.2-5.8,6.4-11.5,9.7-17.3c12.4-21.8,24.8-43.7,37.2-65.5c6.7-11.8,13.2-23.6,19.9-35.4
		c12.2-21.4,24.4-42.8,36.5-64.2C767.1,245.3,772.4,236.1,778.2,225.9z M811.4,223.5c-9.4,1.1-16.6,6.8-22.2,14.6
		c-5.4,7.6-9.3,16.7-14,25.1c-11.6,20.6-23.3,41.1-35,61.6c-7.2,12.6-14.3,25.4-21.4,38c-12.2,21.5-24.5,43.1-36.8,64.6
		c-6.1,10.6-12.1,21.3-18.4,31.7c-4.1,6.8-5.6,12.9-0.7,20.3c6.4,9.6,11.9,20.1,18.3,29.7c7.5,11.1,15.5,21.6,23.4,32.2
		c0.6,0.8,3,0.9,3.7,0.2c2.9-3.2,5.9-6.4,7.9-10.3c9.3-17.4,18.8-34.7,27.4-52.6c9.3-19.4,18-39.4,26.5-59.3
		c11.7-27.2,23.1-54.6,34.3-82c10.1-24.5,19.8-49.2,29.6-73.9c2.3-5.8,4.4-11.7,6.5-17.7c2.3-6.7,1.6-8.5-3.9-11.1
		c-6.1-2.9-12.1-5.8-18.2-8.6C816.2,225,813.7,224.3,811.4,223.5z M180.5,202.2c-0.7-1.3-1.1-2.3-1.8-3.1
		c-6.9-8.2-13.9-16.2-20.8-24.4c-9.8-11.8-19.5-23.7-29.3-35.5c-11.5-13.9-23-27.9-34.7-41.6c-9.7-11.4-20.1-22.1-29.5-33.9
		c-4.8-6-10.2-9.5-16.4-11.7c-8.2-2.8-16.4-6-24.8-6.9C12.4,44,6.4,53.5,8.4,66.4c0.7,4.8,1.8,9.6,1.8,14.5c0,5.6,2,5.7,5.6,5.1
		c13.5-2.1,26.2,0.7,38,9.2c11.2,8,21.5,17.2,30.7,28.5c14.5,17.7,29.7,34.6,44.7,51.8c1.4,1.6,2.9,3,4.2,4.6
		c7.6,9.2,15.1,18.6,22.9,27.6c1.1,1.2,3.5,1.8,5,1.3C167.5,207.1,173.6,204.7,180.5,202.2z M62.2,55.7c7.8,9.5,15.3,18.8,22.9,27.9
		c11.2,13.5,22.6,27,33.9,40.4c9.8,11.6,19.6,23.2,29.4,34.8c0.5,0.6,1,1.3,1.5,1.9c10.8,12.8,21.7,25.6,32.5,38.3
		c0.7,0.8,2,1.2,3,1.1c6.4-0.8,12.8-1.9,19.5-2.9c-0.4-0.7-0.6-1.3-1-1.7c-9.8-12.5-19.7-25-29.5-37.5
		c-10.1-12.9-20.2-25.8-30.2-38.8c-10.7-13.9-21.2-28.1-32.2-41.7c-4.7-5.8-10.7-10.1-15.7-15.5C85.5,50,75.2,48,62.2,55.7z
		 M110.4,70.3c3.2,4.6,6.1,8.9,9.2,13c10.6,13.9,21.1,27.7,31.8,41.4c8.9,11.4,18.1,22.6,27.1,33.9c0.4,0.5,0.8,1,1.2,1.5
		c9.2,11.8,18.4,23.5,27.7,35.2c0.7,0.9,2,1.6,3,1.7c4.3,0.2,8.6,0.1,12.9,0.1c0.2-0.4,0.4-0.9,0.6-1.3
		c-9.7-13.7-19.1-27.7-29.3-40.9c-9.6-12.5-19.9-24.1-30-36.1c-9.1-10.7-18.3-21.3-27.4-32c-1.7-2-3.4-4.2-5.1-6.2
		C126.2,73.6,120,67.9,110.4,70.3z"/>
	<path d="M778.2,225.9c-5.8,10.2-11,19.3-16.3,28.5c-12.2,21.4-24.4,42.8-36.5,64.2c-6.7,11.8-13.3,23.6-19.9,35.4
		c-12.4,21.9-24.8,43.7-37.2,65.5c-3.3,5.7-6.5,11.5-9.7,17.3c-1.2,2.2-2.4,2.6-4.7,1.8c-15.7-5.5-31.4-10.9-47.1-16
		c-6.2-2-12.5-3.5-18.8-4.7c-7.7-1.5-14.9,0.7-22.3,4c-7.5,3.5-15.6,5.3-23.4,7.8c-10,3.3-20.1,6.4-30.1,10
		c-18.6,6.6-37.2,13.5-55.8,20.2c-18.2,6.6-36.3,13.3-54.6,19.6c-15,5.2-30.1,10.4-45.4,14.6c-10.5,2.9-21.3,3.1-31.9-0.3
		c-7.4-2.3-13.7-7.1-19.3-13.3c-1.2-1.3-2.6-2.2-3.9-3.3c-12.9-11.2-25.8-22.4-38.6-33.7c-7.1-6.3-14.1-12.7-21-19.2
		c-14.5-13.5-29-27-43.4-40.6c-6.6-6.2-13.2-12.4-19.7-18.8c-14.3-14-28.7-27.9-42.9-42.3c-11.3-11.4-21.6-24.2-30.7-38.1
		c-13.5-20.5-26.5-41.3-39.6-62.1c-7.7-12.4-15.3-24.9-22.6-37.6c-11.7-20.3-23.2-40.8-34.6-61.3c-2.7-4.9-4.8-10.3-7.2-15.5
		c-1.7-3.6-1.3-6.8,1-10.1c4.3-6.3,9.3-9.2,16.4-9.6c13.1-0.8,25.2,2,36,10.6c9.1,7.2,18.4,13.9,25.9,23.9
		c7.9,10.4,16.9,19.5,25.4,29.3c13.4,15.6,26.8,31.2,40.2,46.9c3.2,3.7,6.1,7.9,9.3,12.1c-2.6,1.4-5.3,2.5-7.7,4.3
		c-4.6,3.5-9.3,6.9-13.4,11.2c-7.5,8.1-7.3,18.9-5.8,29.7c2.5,18.2,9.6,32.5,22.6,43.2c12.6,10.4,25.6,18.8,41.1,20
		c23.2,1.8,46.5,4,69.7,4.9c49.2,1.9,98.4,3.1,147.6,4.6c1.6,0,3.2,0,4.8,0c0-0.6,0.1-1.2,0.1-1.9c-1.7-0.3-3.4-0.9-5.1-1
		c-13.2-0.5-26.4-0.9-39.6-1.3c-37.9-1.2-75.8-1.9-113.6-3.6c-22.8-1-45.7-2.6-68.5-5.3c-11.5-1.4-22.2-7.2-31.3-16.3
		c-2.9-2.9-6.3-5-9.2-7.9c-13.2-13.3-17.6-30.8-16.4-50.8c0.4-7.2,4.3-11.8,8.8-16c9.3-8.8,20.2-13.2,31.4-16.6
		c9.7-2.9,19.6-4.6,29.4-6.6c4.2-0.9,8.5-1.1,12.8-2c9.6-2.1,18.2,3.3,27.4,4.6c2.9,0.4,5.8,0.6,8.7,0.7c16.1,0.6,32.2,1.5,48.3,1.8
		c22.2,0.3,44.5-0.2,66.3-5.3c17.3-4.1,34.8-8.2,51.1-17.2c13.2-7.4,26.3-14.9,39.6-21.9c12.8-6.8,25.7-13.2,38.6-19.6
		c34.1-16.9,70-20.7,106.3-20.4c25.4,0.3,50.7,4.3,74.5,15.5c12,5.7,23.4,13.3,34.6,21c8.4,5.7,16.1,12.9,23.9,19.7
		c7.4,6.4,14.8,12.8,21.7,19.9C762.3,207.5,770.1,216.9,778.2,225.9z"/>
	<path d="M811.4,223.5c2.2,0.8,4.8,1.4,7.2,2.5c6.1,2.8,12.1,5.7,18.2,8.6c5.4,2.6,6.2,4.4,3.9,11.1c-2,6-4.2,11.9-6.5,17.7
		c-9.8,24.7-19.5,49.4-29.6,73.9c-11.3,27.4-22.7,54.8-34.3,82c-8.6,20-17.2,39.9-26.5,59.3c-8.6,17.9-18.1,35.2-27.4,52.6
		c-2.1,3.9-5.1,7.1-7.9,10.3c-0.7,0.7-3.1,0.6-3.7-0.2c-7.9-10.6-16-21.1-23.4-32.2c-6.4-9.6-12-20-18.3-29.7
		c-4.9-7.4-3.4-13.6,0.7-20.3c6.3-10.4,12.3-21.1,18.4-31.7c12.3-21.5,24.6-43,36.8-64.6c7.2-12.6,14.3-25.3,21.4-38
		c11.7-20.6,23.4-41.1,35-61.6c4.7-8.3,8.6-17.5,14-25.1C794.8,230.4,802,224.7,811.4,223.5z"/>
	<path d="M180.5,202.2c-6.9,2.5-13.1,4.9-19.4,6.7c-1.5,0.5-3.9-0.1-5-1.3c-7.8-9.1-15.3-18.4-22.9-27.6c-1.3-1.6-2.8-3-4.2-4.6
		c-14.9-17.2-30.2-34.1-44.7-51.8c-9.2-11.3-19.5-20.4-30.7-28.5C42,86.7,29.3,83.9,15.8,86c-3.6,0.6-5.7,0.4-5.6-5.1
		c0-4.8-1.1-9.7-1.8-14.5c-1.9-12.9,4-22.4,14.9-21.3c8.4,0.8,16.6,4.1,24.8,6.9c6.2,2.2,11.7,5.7,16.4,11.7
		c9.3,11.9,19.7,22.5,29.5,33.9c11.7,13.7,23.2,27.7,34.7,41.6c9.8,11.8,19.5,23.7,29.3,35.5c6.9,8.2,13.9,16.3,20.8,24.4
		C179.4,199.9,179.8,201,180.5,202.2z"/>
	<path d="M62.2,55.7C75.2,48,85.5,50,96.5,62c5,5.4,11,9.7,15.7,15.5c11,13.6,21.4,27.8,32.2,41.7c10,13,20.1,25.9,30.2,38.8
		c9.8,12.5,19.7,25,29.5,37.5c0.4,0.5,0.6,1.1,1,1.7c-6.7,1-13.1,2.1-19.5,2.9c-1,0.1-2.3-0.3-3-1.1c-10.9-12.7-21.7-25.5-32.5-38.3
		c-0.5-0.6-1-1.3-1.5-1.9c-9.8-11.6-19.6-23.2-29.4-34.8c-11.3-13.4-22.6-26.9-33.9-40.4C77.5,74.5,70,65.2,62.2,55.7z"/>
	<path d="M110.4,70.3c9.6-2.5,15.8,3.3,21.6,10.2c1.7,2.1,3.4,4.2,5.1,6.2c9.1,10.7,18.3,21.3,27.4,32c10.1,11.9,20.4,23.6,30,36.1
		c10.2,13.2,19.6,27.2,29.3,40.9c-0.2,0.4-0.4,0.9-0.6,1.3c-4.3,0-8.6,0.1-12.9-0.1c-1,0-2.3-0.8-3-1.7
		c-9.3-11.7-18.5-23.5-27.7-35.2c-0.4-0.5-0.8-1-1.2-1.5c-9-11.3-18.2-22.5-27.1-33.9c-10.7-13.7-21.3-27.5-31.8-41.4
		C116.5,79.3,113.7,74.9,110.4,70.3z"/>
</g>
</svg>
